<svg width="50" height="50" viewBox="0 0 50 50" fill="none" xmlns="http://www.w3.org/2000/svg">
<rect x="0.5" y="0.5" width="49" height="49" fill="#121212" stroke="#121212"/>
<g clip-path="url(#clip0_1_2)">
<path d="M24.1999 7.55975V28.4697C24.1999 28.5697 24.1699 28.6697 24.1199 28.7497C24.0699 28.8297 23.9999 28.9097 23.9099 28.9597L7.83994 38.2197C7.72994 38.2797 7.60994 38.2997 7.48994 38.2897C7.36994 38.2697 7.25994 38.2197 7.16994 38.1397C7.07994 38.0597 7.02994 37.9497 7.00994 37.8297C6.98994 37.7097 7.00994 37.5897 7.06994 37.4797L23.1399 7.29975C23.4199 6.78975 24.1999 6.97975 24.1999 7.55975Z" fill="#DB0170"/>
<path d="M25.25 7.55975V28.4697C25.25 28.5697 25.28 28.6697 25.33 28.7497C25.38 28.8397 25.45 28.9097 25.54 28.9597L41.62 38.2197C41.73 38.2797 41.85 38.3097 41.97 38.2897C42.09 38.2697 42.2 38.2197 42.29 38.1397C42.38 38.0497 42.44 37.9397 42.45 37.8197C42.47 37.6997 42.45 37.5797 42.39 37.4697L26.31 7.29975C26.03 6.78975 25.25 6.97975 25.25 7.55975Z" fill="#00F2C8"/>
<path d="M24.3199 29.83L8.54994 38.95C8.43994 39.01 8.35994 39.11 8.30994 39.22C8.25994 39.33 8.24994 39.46 8.28994 39.58C8.31994 39.7 8.38994 39.81 8.48994 39.88C8.58994 39.96 8.70994 40 8.82994 40H40.3799C40.4999 40 40.6199 39.96 40.7199 39.88C40.8199 39.8 40.8899 39.7 40.9199 39.58C40.9499 39.46 40.9399 39.33 40.8999 39.22C40.8499 39.11 40.7699 39.01 40.6599 38.95L24.8799 29.82C24.7899 29.77 24.6999 29.75 24.5999 29.75C24.4999 29.75 24.3999 29.78 24.3199 29.83Z" fill="#3542FE"/>
</g>
<defs>
<clipPath id="clip0_1_2">
<rect width="35.45" height="33" fill="white" transform="translate(7 7)"/>
</clipPath>
</defs>
</svg>
