<svg width="50" height="50" viewBox="0 0 50 50" fill="none" xmlns="http://www.w3.org/2000/svg">
<rect x="0.5" y="0.5" width="49" height="49" fill="#121212" stroke="#121212"/>
<g clip-path="url(#clip0_1_2)">
<path d="M19.9452 24.9844L15.3316 33.0121L10.913 40.6965H19.7463L21.055 38.4161L21.6905 37.3118L24.1624 33.0121L24.3612 32.6675L23.9245 31.9065L21.4995 27.689L20.8601 26.5769L19.9465 24.9883V24.9857L19.9452 24.9844Z" fill="#F9B913"/>
<path d="M30.6942 17.9041L30.0548 16.7946L26.0754 9.87639L25.4399 8.77079L24.9993 8.00195L24.5588 8.77079L23.9233 9.87639L19.9465 16.7946L19.3071 17.9067V17.9028L9 35.8301H41L30.6942 17.9015V17.9041ZM24.9993 10.2249L29.4141 17.9041L30.0522 19.0162H30.0509L34.0277 25.9357H25.1982L24.9967 25.5846L22.135 20.6061L21.4956 19.494L20.5807 17.9028L24.998 10.2236L24.9993 10.2249ZM10.913 34.7245L15.3303 27.04L19.9439 19.0136H19.9452V19.0175L20.8601 20.6087L21.4982 21.7209L23.9233 25.937L24.3612 26.698L24.1637 27.0427L21.6919 31.3424L21.0564 32.448L19.7464 34.7271H10.913V34.7245ZM22.3339 32.4454L22.9694 31.3398L25.0007 27.8076L25.4412 27.04H34.6684L39.0857 34.7245H21.0239L22.3339 32.4454Z" fill="#E8E8E8"/>
<path d="M30.0548 24.984V24.9853L29.4141 23.8745L24.9994 16.1953L20.5859 23.8745L21.4996 25.4644L22.1377 26.5765L24.9994 31.555L25.2021 31.9061H34.0316L30.0548 24.9879L30.0561 24.9853L30.0548 24.984Z" fill="#F9B913"/>
<path d="M24.9994 33.7792L22.9694 37.3114L22.3339 38.4157L21.0239 40.6961H39.087L34.6697 33.0117H25.4413L24.9994 33.7792Z" fill="#F9B913"/>
</g>
<defs>
<clipPath id="clip0_1_2">
<rect width="32" height="32.6957" fill="white" transform="translate(9 8)"/>
</clipPath>
</defs>
</svg>
