<svg width="50" height="50" viewBox="0 0 50 50" fill="none" xmlns="http://www.w3.org/2000/svg">
<rect x="0.5" y="0.5" width="49" height="49" fill="#121212" stroke="#121212"/>
<g clip-path="url(#clip0_1_2)">
<path d="M9.00634 39.0099C9.00634 35.3941 8.98876 31.8519 9.01273 28.3096C9.03032 25.7808 8.92162 23.2344 9.19016 20.7296C9.94305 13.6947 16.1611 7.84586 23.2152 7.09138C31.4314 6.21381 39.2144 11.7398 40.7506 20.1094C40.8896 20.8655 40.984 21.6408 40.9872 22.408C41.0079 27.683 40.9967 32.9596 40.9967 38.2346C40.9967 38.4728 40.9967 38.7093 40.9967 39.0099H9.00634ZM19.0128 36.1022C21.2491 36.099 22.9962 34.3455 23.0042 32.0964C23.0122 29.8841 21.2219 28.1002 18.9952 28.1018C16.759 28.105 15.0246 29.857 15.0246 32.1124C15.0246 34.3695 16.7606 36.1054 19.0128 36.1006V36.1022ZM30.9934 36.1022C33.2313 36.1022 34.9801 34.3583 34.996 32.1076C35.012 29.8969 33.2217 28.1034 30.9998 28.1018C28.762 28.1018 27.0212 29.849 27.018 32.1012C27.0148 34.3615 28.7428 36.1006 30.995 36.1006L30.9934 36.1022Z" fill="white"/>
<path d="M30.968 33.3155C30.3062 33.298 29.7963 32.7337 29.8218 32.0479C29.8474 31.3766 30.3254 30.9402 31.0207 30.9514C31.7432 30.9642 32.2004 31.4565 32.1652 32.1806C32.1332 32.82 31.593 33.3315 30.968 33.3155Z" fill="white"/>
<path d="M18.989 33.3155C18.3272 33.298 17.8173 32.7337 17.8428 32.0479C17.8684 31.3766 18.3464 30.9402 19.0417 30.9514C19.7642 30.9642 20.2214 31.4565 20.1862 32.1806C20.1542 32.82 19.614 33.3315 18.989 33.3155Z" fill="white"/>
</g>
<defs>
<clipPath id="clip0_1_2">
<rect width="32" height="32.0096" fill="white" transform="translate(9 7)"/>
</clipPath>
</defs>
</svg>
