<svg width="50" height="50" viewBox="0 0 50 50" fill="none" xmlns="http://www.w3.org/2000/svg">
<rect x="0.5" y="0.5" width="49" height="49" fill="#121212" stroke="#121212"/>
<g clip-path="url(#clip0_1_2)">
<path d="M38.9772 25C38.9772 22.1573 38.1236 19.5112 36.6605 17.3017L41 12.9623L37.0973 9.05955L32.7697 13.3871C30.5484 11.8943 27.8744 11.0228 25.002 11.0228C22.1295 11.0228 19.5132 11.8764 17.3037 13.3395L12.9623 9L9.05955 12.9027L13.3871 17.2303C11.8943 19.4516 11.0228 22.1256 11.0228 24.998C11.0228 27.8705 11.8764 30.4868 13.3395 32.6963L9 37.0377L12.9027 40.9404L17.2303 36.6129C19.4516 38.1057 22.1256 38.9772 24.998 38.9772C27.8705 38.9772 30.4868 38.1236 32.6963 36.6605L37.0377 41.002L40.9404 37.0993L36.6129 32.7717C38.1057 30.5464 38.9772 27.8725 38.9772 25ZM16.5434 25C16.5434 20.337 20.337 16.5414 25.002 16.5414C29.667 16.5414 33.4605 20.335 33.4605 25C33.4605 29.665 29.667 33.4586 25.002 33.4586C20.337 33.4586 16.5434 29.665 16.5434 25Z" fill="white"/>
</g>
<defs>
<clipPath id="clip0_1_2">
<rect width="32" height="32.002" fill="white" transform="translate(9 9)"/>
</clipPath>
</defs>
</svg>
