<svg width="50" height="50" viewBox="0 0 50 50" fill="none" xmlns="http://www.w3.org/2000/svg">
<rect x="0.5" y="0.5" width="49" height="49" fill="#121212" stroke="#121212"/>
<g clip-path="url(#clip0_1_2)">
<path d="M22.9245 19.4654L15.398 24.4341C15.1761 24.5797 15.1761 24.906 15.398 25.0542L22.9911 30.0673C23.3788 30.3218 23.6111 30.7565 23.6111 31.2179V39.0903C23.6111 39.4088 23.2528 39.5942 22.9937 39.414L9.5528 30.0346C9.20494 29.7925 9 29.395 9 28.9728V20.5123C9 20.09 9.20755 19.6926 9.5528 19.4504L22.9937 10.0717C23.2554 9.88893 23.6111 10.0769 23.6111 10.3954V18.1862C23.6111 18.6999 23.352 19.1815 22.9245 19.4654Z" fill="#FAF0F0"/>
<path d="M41.0001 20.5157V28.9762C41.0001 29.3985 40.7925 29.7959 40.4466 30.0381L27.0063 39.4168C26.7446 39.5996 26.3889 39.4116 26.3889 39.0931V31.2207C26.3889 30.7567 26.6213 30.3246 27.0089 30.0701L34.602 25.057C34.8239 24.9114 34.8239 24.5851 34.602 24.4369L27.0755 19.4682C26.6461 19.1843 26.3889 18.7053 26.3889 18.189V10.3982C26.3889 10.0797 26.7472 9.89432 27.0063 10.0745L40.4466 19.4532C40.7951 19.6953 41.0001 20.0928 41.0001 20.5151V20.5157Z" fill="#FAF0F0"/>
</g>
<defs>
<clipPath id="clip0_1_2">
<rect width="32" height="29.4879" fill="white" transform="translate(9 10)"/>
</clipPath>
</defs>
</svg>
