<svg width="50" height="50" viewBox="0 0 50 50" fill="none" xmlns="http://www.w3.org/2000/svg">
<rect x="0.5" y="0.5" width="49" height="49" fill="#121212" stroke="#121212"/>
<g clip-path="url(#clip0_1_2)">
<path d="M9.65564 19.6582H10.2173L12.2792 23.4666L14.3488 19.6582H14.9104V25.1977H14.3796V20.7276L12.5177 24.0744H12.0407L10.1865 20.7276V25.1977H9.65564V19.6582Z" fill="white"/>
<path d="M21.1731 25.1977H20.6191L19.8728 23.4973H17.0339L16.2876 25.1977H15.7336L18.1879 19.6582H18.7188L21.1731 25.1977ZM18.4572 20.2891L17.2262 23.0588H19.6805L18.4572 20.2891Z" fill="white"/>
<path d="M21.9963 19.6582H25.338C25.5072 19.6582 25.6675 19.6903 25.8175 19.7544C25.9688 19.8185 26.0996 19.907 26.2086 20.0198C26.3189 20.1326 26.4074 20.2647 26.4741 20.416C26.5407 20.5673 26.5741 20.7276 26.5741 20.8969V21.8663C26.5741 22.0355 26.542 22.1946 26.4779 22.3433C26.4138 22.492 26.3253 22.6228 26.2125 22.7357C26.0996 22.8485 25.9676 22.937 25.8175 23.0011C25.6662 23.0652 25.5059 23.0973 25.338 23.0973H25.0533L26.6972 25.1977H26.0509L24.4352 23.0973H22.5272V25.1977H21.9963V19.6582ZM25.2431 22.6203C25.4688 22.6203 25.6585 22.5433 25.8124 22.3907C25.9663 22.2381 26.0432 22.0484 26.0432 21.8227V20.9405C26.0432 20.8276 26.0201 20.7225 25.974 20.6225C25.9278 20.5225 25.8637 20.4365 25.7816 20.366C25.6996 20.2942 25.606 20.2378 25.5008 20.1968C25.3957 20.1557 25.2867 20.1352 25.1738 20.1352H22.5272V22.6203H25.2431Z" fill="white"/>
<path d="M31.8596 20.1352H29.0129C28.9001 20.1352 28.7949 20.157 28.6975 20.2006C28.6 20.2442 28.5141 20.3019 28.4397 20.3737C28.3653 20.4455 28.3076 20.5302 28.2666 20.6276C28.2256 20.7251 28.2051 20.8302 28.2051 20.943V24.359C28.2051 24.4565 28.241 24.5411 28.3128 24.6129C28.3846 24.6847 28.4692 24.7206 28.5667 24.7206H30.9132C31.0261 24.7206 31.1312 24.7001 31.2287 24.6591C31.3261 24.6181 31.4108 24.5604 31.4826 24.486C31.5544 24.4116 31.6121 24.3257 31.6557 24.2282C31.6993 24.1308 31.7211 24.0256 31.7211 23.9128V22.6049H30.0669V22.1663H32.2519V23.959C32.2519 24.1282 32.2199 24.2885 32.1558 24.4398C32.0916 24.5911 32.0032 24.7232 31.8903 24.836C31.7775 24.9489 31.6467 25.0374 31.498 25.1015C31.3492 25.1656 31.1902 25.1977 31.0209 25.1977H28.3666C28.1717 25.1977 28.0076 25.131 27.8742 24.9976C27.7409 24.8643 27.6742 24.7001 27.6742 24.5052V20.8969C27.6742 20.7276 27.7063 20.5673 27.7704 20.416C27.8345 20.2647 27.923 20.1326 28.0358 20.0198C28.1486 19.907 28.2807 19.8185 28.432 19.7544C28.5833 19.6903 28.7436 19.6582 28.9129 19.6582H31.8596V20.1352Z" fill="white"/>
<path d="M33.3522 19.6582H33.883V25.1977H33.3522V19.6582Z" fill="white"/>
<path d="M35.4218 19.6582H35.9988L39.4763 24.4129V19.6582H40.0072V25.1977H39.4302L35.9526 20.443V25.1977H35.4218V19.6582Z" fill="white"/>
<path d="M9.76331 32.2672L13.8833 28.0049H9.76331V26.4648H16.0042V28.0049L11.915 32.2672H16.0042V33.8072H9.76331V32.2672Z" fill="white"/>
<path d="M23.6722 26.4648V28.0049H19.4407V29.4731H23.1618V30.7784H19.4407V32.2672H23.6722V33.8072H17.707V26.4648H23.6722Z" fill="white"/>
<path d="M25.252 26.4648H30.2182C30.449 26.4648 30.6645 26.5097 30.8658 26.5969C31.0658 26.6853 31.2415 26.8046 31.3915 26.9533C31.5415 27.1021 31.6595 27.279 31.748 27.4829C31.8365 27.6868 31.8801 27.9009 31.8801 28.1253V29.6551C31.8801 29.8795 31.8377 30.0936 31.7531 30.2975C31.6685 30.5014 31.5531 30.6796 31.4069 30.8322C31.2607 30.9848 31.0863 31.1066 30.8812 31.1938C30.676 31.281 30.4593 31.3259 30.2285 31.3259H30.1169L32.075 33.8033H30.0759L28.2704 31.3259H26.9856V33.8033H25.252V26.4609V26.4648ZM29.8207 29.85C29.9156 29.85 29.9938 29.8192 30.0554 29.7577C30.1169 29.6961 30.1477 29.6179 30.1477 29.523V28.3305C30.1477 28.2625 30.1221 28.2061 30.0708 28.1625C30.0195 28.1189 29.9554 28.0843 29.8771 28.0612C29.7989 28.0369 29.7156 28.0228 29.6271 28.0151C29.5386 28.0086 29.4565 28.0048 29.3822 28.0048H26.9856V29.85H29.8207Z" fill="white"/>
<path d="M33.2778 28.1267C33.2778 27.8959 33.3214 27.6792 33.4099 27.4791C33.4984 27.2791 33.6176 27.1034 33.7664 26.9534C33.9151 26.8034 34.0908 26.6854 34.2921 26.5969C34.4922 26.5084 34.7089 26.4648 34.9397 26.4648H38.3454C38.5762 26.4648 38.7942 26.5097 38.9981 26.5969C39.202 26.6854 39.3789 26.8046 39.5277 26.9534C39.6764 27.1034 39.7944 27.2778 39.879 27.4791C39.9636 27.6804 40.006 27.8959 40.006 28.1267V32.1441C40.006 32.3749 39.9636 32.5916 39.879 32.7916C39.7944 32.9916 39.6764 33.1673 39.5277 33.3173C39.3789 33.4674 39.202 33.5866 38.9981 33.6738C38.7942 33.7623 38.5762 33.8059 38.3454 33.8059H34.9397C34.7089 33.8059 34.4922 33.7623 34.2921 33.6738C34.0921 33.5853 33.9164 33.4661 33.7664 33.3173C33.6164 33.1686 33.4984 32.9929 33.4099 32.7916C33.3214 32.5916 33.2778 32.3749 33.2778 32.1441V28.1267ZM35.0102 31.9402C35.0102 32.0287 35.041 32.1056 35.1012 32.1697C35.1628 32.2338 35.241 32.2672 35.3359 32.2672H37.9466C38.0415 32.2672 38.1197 32.2351 38.1813 32.1697C38.2428 32.1056 38.2736 32.0287 38.2736 31.9402V28.3306C38.2736 28.2421 38.2428 28.1651 38.1813 28.101C38.1197 28.0369 38.0415 28.0036 37.9466 28.0036H35.3359C35.241 28.0036 35.1628 28.0356 35.1012 28.101C35.0397 28.1651 35.0102 28.2421 35.0102 28.3306V31.9402Z" fill="white"/>
<path d="M39.0647 37.1422H10.9353C8.7657 37.1422 7 35.3765 7 33.2069V19.9353C7 17.7657 8.7657 16 10.9353 16H39.066C41.2356 16 43.0013 17.7657 43.0013 19.9353V33.2069C43.0013 35.3765 41.2356 37.1422 39.066 37.1422H39.0647ZM10.9353 16.5129C9.0478 16.5129 7.51291 18.0478 7.51291 19.9353V33.2069C7.51291 35.0944 9.0478 36.6293 10.9353 36.6293H39.066C40.9535 36.6293 42.4884 35.0944 42.4884 33.2069V19.9353C42.4884 18.0478 40.9535 16.5129 39.066 16.5129H10.9353Z" fill="url(#paint0_linear_1_2)"/>
</g>
<defs>
<linearGradient id="paint0_linear_1_2" x1="7" y1="26.5711" x2="43" y2="26.5711" gradientUnits="userSpaceOnUse">
<stop stop-color="#FFE000"/>
<stop offset="1" stop-color="#4522B8"/>
</linearGradient>
<clipPath id="clip0_1_2">
<rect width="36" height="21.1422" fill="white" transform="translate(7 16)"/>
</clipPath>
</defs>
</svg>
