<svg width="50" height="50" viewBox="0 0 50 50" fill="none" xmlns="http://www.w3.org/2000/svg">
<rect x="0.5" y="0.5" width="49" height="49" fill="#121212" stroke="#121212"/>
<g clip-path="url(#clip0_1_2)">
<path fill-rule="evenodd" clip-rule="evenodd" d="M15.9129 13.9215L18.1097 16.1876C20.4009 14.3881 23.3062 13.5572 26.2017 13.8723C29.0972 14.1873 31.7565 15.6226 33.6087 17.871L31.3962 20.1431C32.5694 21.6749 33.152 23.5768 33.0379 25.5024C32.9237 27.4279 32.1206 29.2491 30.7742 30.6313C29.4279 32.0134 27.6307 32.864 25.7076 33.0293C23.7865 33.1947 21.8693 32.6612 20.3083 31.5291L19.1824 32.6986C20.9422 34.0374 23.1113 34.7324 25.3218 34.6635C27.5323 34.5946 29.6523 33.7677 31.3274 32.3205C33.0005 30.8734 34.1264 28.8947 34.5161 26.7171C34.9039 24.5396 34.5338 22.2931 33.463 20.3557L34.5614 19.2158C35.7621 21.2004 36.3172 23.5099 36.146 25.8233C35.9747 28.1367 35.0889 30.3399 33.6087 32.1256L34.7405 33.2873C36.7128 30.9679 37.7915 28.0225 37.7876 24.9786C37.7836 21.9348 36.6932 18.9933 34.7149 16.6799C32.7367 14.3664 29.9987 12.8366 26.993 12.3602C23.9873 11.8857 20.9107 12.498 18.3163 14.0869L17.218 12.9686C19.5328 11.4624 22.2334 10.661 24.9951 10.665C28.3138 10.6453 31.534 11.799 34.0851 13.9254L35.2129 12.7638C32.1305 10.1609 28.1799 8.82212 24.1546 9.019C20.1292 9.21392 16.3263 10.9308 13.5155 13.8191C10.7026 16.7074 9.09053 20.5566 9.00392 24.5868C8.91732 28.6171 10.3621 32.5312 13.045 35.5396L14.1768 34.378C12.921 32.9329 11.9663 31.2515 11.3719 29.4322C10.7774 27.613 10.555 25.6914 10.7164 23.7835C10.8778 21.8757 11.4211 20.021 12.3147 18.3258C13.2064 16.6326 14.4308 15.1343 15.9129 13.9235V13.9215Z" fill="#FF5100"/>
<path fill-rule="evenodd" clip-rule="evenodd" d="M22.072 22.7129H28.7527L25.3927 29.0979L22.072 22.7129Z" fill="#FF5100"/>
<path fill-rule="evenodd" clip-rule="evenodd" d="M19.4049 21.0957L24.9912 31.828L30.5774 21.0957H19.4049Z" fill="#FF5100"/>
<path fill-rule="evenodd" clip-rule="evenodd" d="M35.8075 15.6109L36.9393 14.4492H36.9472C39.636 17.4557 41.0827 21.3718 40.9981 25.406C40.9135 29.4402 39.3013 33.2893 36.4866 36.1816C33.6737 39.0719 29.8689 40.7868 25.8396 40.9817C21.8103 41.1746 17.8578 39.8338 14.7812 37.227L15.913 36.0654C18.2554 37.9969 21.1509 39.1309 24.1822 39.3042C27.2135 39.4775 30.2192 38.6801 32.7663 37.0282L31.668 35.9099C29.0736 37.5027 25.9951 38.117 22.9874 37.6425C19.9797 37.168 17.2417 35.6362 15.2615 33.3228C13.2833 31.0094 12.1928 28.0639 12.1908 25.0201C12.1869 21.9742 13.2714 19.0288 15.2457 16.7114L16.3854 17.879C14.9032 19.6647 14.0155 21.8679 13.8442 24.1813C13.673 26.4947 14.2281 28.8042 15.4308 30.7888L16.5291 29.6489C15.4564 27.7115 15.0824 25.465 15.4682 23.2855C15.8559 21.106 16.9799 19.1253 18.653 17.6762C20.3261 16.2271 22.4481 15.3982 24.6585 15.3273C26.871 15.2565 29.0402 15.9495 30.8019 17.2883L29.6563 18.4637C28.304 17.4695 26.6663 16.9418 24.9873 16.9595C23.4913 16.9595 22.0229 17.375 20.7493 18.1625C19.4778 18.95 18.4503 20.0782 17.783 21.419C17.1177 22.7598 16.8382 24.2601 16.9799 25.7505C17.1216 27.241 17.6767 28.6625 18.5821 29.8536L17.4444 31.0212L16.3717 32.1198C18.2239 34.3682 20.8832 35.8016 23.7787 36.1166C26.6742 36.4316 29.5775 35.6008 31.8707 33.8012L33.0025 34.9688L34.0733 36.0674C35.5535 34.8546 36.7759 33.3563 37.6676 31.663C38.5593 29.9698 39.1006 28.1132 39.262 26.2053C39.4234 24.2975 39.201 22.3778 38.6065 20.5586C38.0121 18.7394 37.0594 17.058 35.8035 15.6128L35.8075 15.6109Z" fill="#FF5100"/>
</g>
<defs>
<clipPath id="clip0_1_2">
<rect width="32" height="32" fill="white" transform="translate(9 9)"/>
</clipPath>
</defs>
</svg>

