<svg width="50" height="50" viewBox="0 0 50 50" fill="none" xmlns="http://www.w3.org/2000/svg">
<rect x="0.5" y="0.5" width="49" height="49" fill="#121212" stroke="#121212"/>
<mask id="mask0_1_2" style="mask-type:luminance" maskUnits="userSpaceOnUse" x="9" y="10" width="32" height="29">
<path d="M21.3569 10.2532C18.1733 10.7619 15.3343 12.2881 13.0041 14.7496C10.5064 17.331 9.12634 20.7919 9.16408 24.3825C9.16408 28.1896 10.4605 31.5209 13.0041 34.1794C14.8749 36.2126 17.2888 37.6649 19.962 38.364C21.7672 38.8563 25.1313 38.8399 26.9692 38.3476C31.1866 37.2153 34.7149 34.2778 36.4708 30.4214L37.0287 29.1907L38.2431 29.0922C38.8699 29.0528 39.4919 28.9494 40.0974 28.7804L40.7538 28.5671V25.4491L39.8513 25.5148C37.7343 25.6625 37.8 25.6789 37.7508 25.0553C37.7179 24.7599 37.7508 24.4481 37.8328 24.366C37.8984 24.3004 38.5056 24.1199 39.1784 23.9886C39.8349 23.8409 40.4749 23.644 40.6061 23.5455C40.7702 23.4143 40.8359 22.9548 40.8359 22.003C40.8359 20.3619 40.7046 20.1978 39.6543 20.4276C39.2769 20.5096 38.5877 20.6245 38.161 20.6737C37.2749 20.7722 37.3897 20.9035 36.6677 18.9507C36.3067 17.966 35.3713 16.4071 34.4359 15.2584C32.7456 13.1743 29.5292 11.1886 26.8051 10.5158C25.4759 10.204 22.6041 10.0563 21.3569 10.2532ZM26.3949 14.1425C28.0408 14.6577 29.5456 15.5455 30.7928 16.7353C31.9579 17.8348 33.2379 19.6399 33.0574 19.9353C33.0082 20.0009 32.4995 19.9681 31.9415 19.8204C30.8092 19.5414 27.0677 19.443 26.0338 19.6727C25.0492 19.886 24.9179 20.1158 24.9179 21.6584C24.9179 23.3978 25.0164 23.5127 26.3456 23.2173C26.8708 23.1025 28.1508 23.0204 29.1846 23.0204C30.7272 23.0368 31.3508 23.1189 32.5487 23.4799C33.3528 23.7096 34.0749 24.005 34.1405 24.1035C34.239 24.2676 34.1569 24.9404 34.0092 25.2358C33.9764 25.285 33.402 25.203 32.762 25.0225C30.12 24.3496 26.7395 24.3004 25.4431 24.9076C25.0164 25.1209 25 25.1866 24.9508 26.5486C24.8851 28.4358 24.9672 28.5178 26.5918 28.206C28.922 27.7466 33.1231 28.2225 33.1231 28.9445C33.1231 29.4532 31.8431 31.2091 30.6615 32.3086C28.6102 34.2614 25.5251 35.3773 22.7846 35.164C21.3077 35.0491 19.2728 34.4255 18.0749 33.7363C16.2205 32.6696 14.3661 30.5199 13.48 28.403C12.6102 26.3517 12.5446 23.1517 13.3159 20.9691C14.5959 17.3096 18.0749 14.405 21.882 13.8143C22.801 13.683 25.4923 13.8635 26.3949 14.1425Z" fill="white"/>
</mask>
<g mask="url(#mask0_1_2)">
<path d="M9 39.0199H41V10H9V39.0199Z" fill="white"/>
</g>
</svg>
