<svg width="50" height="50" viewBox="0 0 50 50" fill="none" xmlns="http://www.w3.org/2000/svg">
<rect x="0.5" y="0.5" width="49" height="49" fill="#121212" stroke="#121212"/>
<g clip-path="url(#clip0_1_2)">
<path d="M25 9C33.8378 9 41 16.1645 41 25C41 33.8355 33.8355 41 25 41C16.1645 41 9 33.8378 9 25C9 16.1622 16.1645 9 25 9Z" fill="url(#paint0_radial_1_2)"/>
<path d="M25 9C33.8378 9 41 16.1645 41 25C41 33.8355 33.8355 41 25 41C16.1645 41 9 33.8378 9 25C9 16.1622 16.1645 9 25 9Z" fill="url(#paint1_radial_1_2)"/>
<path d="M25 9C33.8378 9 41 16.1645 41 25C41 33.8355 33.8355 41 25 41C16.1645 41 9 33.8378 9 25C9 16.1622 16.1645 9 25 9Z" fill="url(#paint2_radial_1_2)"/>
<path d="M25 9C33.8378 9 41 16.1645 41 25C41 33.8355 33.8355 41 25 41C16.1645 41 9 33.8378 9 25C9 16.1622 16.1645 9 25 9Z" fill="url(#paint3_radial_1_2)"/>
<path d="M25 9C33.8378 9 41 16.1645 41 25C41 33.8355 33.8355 41 25 41C16.1645 41 9 33.8378 9 25C9 16.1622 16.1645 9 25 9Z" fill="url(#paint4_radial_1_2)"/>
<path d="M25 9C33.8378 9 41 16.1645 41 25C41 33.8355 33.8355 41 25 41C16.1645 41 9 33.8378 9 25C9 16.1622 16.1645 9 25 9Z" fill="url(#paint5_radial_1_2)"/>
<path d="M25 41C33.8366 41 41 33.8366 41 25C41 16.1634 33.8366 9 25 9C16.1634 9 9 16.1634 9 25C9 33.8366 16.1634 41 25 41Z" fill="white"/>
<path d="M25 41C33.8366 41 41 33.8366 41 25C41 16.1634 33.8366 9 25 9C16.1634 9 9 16.1634 9 25C9 33.8366 16.1634 41 25 41Z" fill="url(#paint6_radial_1_2)"/>
<path d="M25 41C33.8366 41 41 33.8366 41 25C41 16.1634 33.8366 9 25 9C16.1634 9 9 16.1634 9 25C9 33.8366 16.1634 41 25 41Z" fill="url(#paint7_radial_1_2)"/>
<path d="M25 41C33.8366 41 41 33.8366 41 25C41 16.1634 33.8366 9 25 9C16.1634 9 9 16.1634 9 25C9 33.8366 16.1634 41 25 41Z" fill="url(#paint8_radial_1_2)"/>
<path d="M25 41C33.8366 41 41 33.8366 41 25C41 16.1634 33.8366 9 25 9C16.1634 9 9 16.1634 9 25C9 33.8366 16.1634 41 25 41Z" fill="url(#paint9_radial_1_2)"/>
<path d="M25 41C33.8366 41 41 33.8366 41 25C41 16.1634 33.8366 9 25 9C16.1634 9 9 16.1634 9 25C9 33.8366 16.1634 41 25 41Z" fill="url(#paint10_radial_1_2)"/>
<path d="M25 41C33.8366 41 41 33.8366 41 25C41 16.1634 33.8366 9 25 9C16.1634 9 9 16.1634 9 25C9 33.8366 16.1634 41 25 41Z" fill="url(#paint11_radial_1_2)"/>
<g style="mix-blend-mode:overlay" opacity="0.72">
<path d="M25 9C33.8378 9 41 16.1645 41 25C41 33.8355 33.8355 41 25 41C16.1645 41 9 33.8378 9 25C9 16.1622 16.1645 9 25 9Z" fill="url(#paint12_radial_1_2)"/>
<path d="M25 9C33.8378 9 41 16.1645 41 25C41 33.8355 33.8355 41 25 41C16.1645 41 9 33.8378 9 25C9 16.1622 16.1645 9 25 9Z" fill="url(#paint13_radial_1_2)"/>
<path d="M25 9C33.8378 9 41 16.1645 41 25C41 33.8355 33.8355 41 25 41C16.1645 41 9 33.8378 9 25C9 16.1622 16.1645 9 25 9Z" fill="url(#paint14_radial_1_2)"/>
<path d="M25 9C33.8378 9 41 16.1645 41 25C41 33.8355 33.8355 41 25 41C16.1645 41 9 33.8378 9 25C9 16.1622 16.1645 9 25 9Z" fill="url(#paint15_radial_1_2)"/>
<path d="M25 9C33.8378 9 41 16.1645 41 25C41 33.8355 33.8355 41 25 41C16.1645 41 9 33.8378 9 25C9 16.1622 16.1645 9 25 9Z" fill="url(#paint16_radial_1_2)"/>
<path d="M25 9C33.8378 9 41 16.1645 41 25C41 33.8355 33.8355 41 25 41C16.1645 41 9 33.8378 9 25C9 16.1622 16.1645 9 25 9Z" fill="url(#paint17_radial_1_2)"/>
<path d="M25 41C33.8366 41 41 33.8366 41 25C41 16.1634 33.8366 9 25 9C16.1634 9 9 16.1634 9 25C9 33.8366 16.1634 41 25 41Z" fill="white"/>
<path d="M25 41C33.8366 41 41 33.8366 41 25C41 16.1634 33.8366 9 25 9C16.1634 9 9 16.1634 9 25C9 33.8366 16.1634 41 25 41Z" fill="url(#paint18_radial_1_2)"/>
<path d="M25 41C33.8366 41 41 33.8366 41 25C41 16.1634 33.8366 9 25 9C16.1634 9 9 16.1634 9 25C9 33.8366 16.1634 41 25 41Z" fill="url(#paint19_radial_1_2)"/>
<path d="M25 41C33.8366 41 41 33.8366 41 25C41 16.1634 33.8366 9 25 9C16.1634 9 9 16.1634 9 25C9 33.8366 16.1634 41 25 41Z" fill="url(#paint20_radial_1_2)"/>
<path d="M25 41C33.8366 41 41 33.8366 41 25C41 16.1634 33.8366 9 25 9C16.1634 9 9 16.1634 9 25C9 33.8366 16.1634 41 25 41Z" fill="url(#paint21_radial_1_2)"/>
<path d="M25 41C33.8366 41 41 33.8366 41 25C41 16.1634 33.8366 9 25 9C16.1634 9 9 16.1634 9 25C9 33.8366 16.1634 41 25 41Z" fill="url(#paint22_radial_1_2)"/>
<path d="M25 41C33.8366 41 41 33.8366 41 25C41 16.1634 33.8366 9 25 9C16.1634 9 9 16.1634 9 25C9 33.8366 16.1634 41 25 41Z" fill="url(#paint23_radial_1_2)"/>
</g>
<g opacity="0.13">
<path d="M25 9.87671C33.3382 9.87671 40.1233 16.6618 40.1233 25C40.1233 33.3382 33.3382 40.1233 25 40.1233C16.6618 40.1233 9.87671 33.3406 9.87671 25C9.87671 16.6594 16.6618 9.87671 25 9.87671ZM25 9C16.1645 9 9 16.1645 9 25C9 33.8355 16.1645 41 25 41C33.8355 41 41 33.8355 41 25C41 16.1645 33.8378 9 25 9Z" fill="#231F20"/>
</g>
<path d="M33.1378 20.1377C33.1378 20.6703 33.053 21.2053 32.8857 21.7473C32.7183 22.2894 32.4709 22.8102 32.1456 23.3146C31.8298 23.8189 31.4433 24.2926 30.9885 24.7404C30.5431 25.1882 30.0387 25.5841 29.4825 25.9306C28.9334 26.2652 28.3395 26.541 27.6961 26.7554C27.0551 26.9699 26.3857 27.0995 25.6881 27.1467C25.5585 27.1655 25.4265 27.1655 25.2969 27.1467C25.1767 27.1184 25.0636 27.0901 24.9623 27.0618C24.8868 27.0335 24.7808 26.9911 24.6417 26.9369C24.5121 26.8803 24.4273 26.8379 24.3896 26.812C24.333 26.7554 24.2552 26.6729 24.1515 26.5598C24.0596 26.4396 23.9889 26.3406 23.9418 26.2652C23.9135 26.2181 23.8994 26.145 23.8994 26.0413C23.9088 25.9306 23.9135 25.8033 23.9135 25.6643C23.9135 25.5346 23.9088 25.3979 23.8994 25.2589C23.8994 25.1104 23.9135 25.0256 23.9418 25.0067C23.9606 24.9879 24.0031 25.0067 24.0667 25.0633C24.1421 25.1104 24.2812 25.1481 24.4862 25.174C24.571 25.1929 24.663 25.1976 24.7643 25.1882C24.8751 25.1788 24.9835 25.1646 25.0848 25.1458C25.41 25.1175 25.7871 25.0256 26.2161 24.8653C26.645 24.7074 27.081 24.4977 27.5264 24.2361C27.9813 23.9745 28.429 23.6728 28.865 23.3264C29.301 22.9728 29.6875 22.5934 30.0222 22.1928C30.3663 21.7921 30.6397 21.3679 30.8447 20.9201C31.0592 20.4723 31.1652 20.0198 31.1652 19.5626C31.1652 19.2091 31.0945 18.8674 30.9555 18.5421C30.8164 18.2075 30.5973 17.8752 30.3003 17.55C30.1141 17.3355 29.7512 17.1682 29.2115 17.0456C28.6718 16.9254 28.026 16.8641 27.2719 16.8641C26.6308 16.8641 25.9427 16.916 25.2074 17.0173C24.4721 17.121 23.7415 17.2884 23.0179 17.5217C22.3958 17.7267 21.8655 17.9082 21.4271 18.0661C20.9911 18.2146 20.614 18.3512 20.2959 18.4714C19.9895 18.5916 19.7326 18.6953 19.5276 18.7802C19.332 18.865 19.1599 18.9381 19.0115 19.0041C18.863 19.0606 18.7286 19.1148 18.6061 19.1714C18.4859 19.2185 18.3539 19.261 18.2149 19.2963C18.0853 19.3434 17.9816 19.3717 17.9085 19.3811H17.727C17.6516 19.3623 17.5974 19.3434 17.5597 19.3246C17.5314 19.2963 17.4937 19.268 17.4489 19.2397C17.4112 19.2115 17.3735 19.202 17.3382 19.2115C17.3005 19.2115 17.2627 19.2162 17.2274 19.2256C17.1991 19.235 17.1661 19.235 17.1308 19.2256C17.0931 19.2162 17.0554 19.1832 17.02 19.1266C16.9634 19.0229 16.9281 18.9452 16.9092 18.8886C16.881 18.8226 16.8668 18.7731 16.8668 18.7354C16.8574 18.6883 16.8574 18.6458 16.8668 18.6105C16.8762 18.5728 16.8904 18.5256 16.9092 18.4714C16.9187 18.4149 16.9187 18.363 16.9092 18.3183C16.8998 18.2711 16.8951 18.2287 16.8951 18.1933C16.8857 18.1556 16.8904 18.1179 16.9092 18.0826C16.9187 18.0354 16.9564 17.9836 17.02 17.9294C17.1496 17.8257 17.3641 17.6678 17.661 17.4533C17.958 17.2389 18.3256 17.0055 18.764 16.7534C19.2094 16.4918 19.7185 16.2255 20.2841 15.9568C20.8615 15.6858 21.4837 15.4383 22.153 15.2144C22.8318 14.9811 23.5529 14.7902 24.3165 14.6417C25.0895 14.4838 25.8932 14.3943 26.7298 14.3754C27.5665 14.3566 28.3018 14.4508 28.9334 14.6559C29.5744 14.8515 30.133 15.1178 30.6067 15.4524C31.0804 15.7777 31.4763 16.1571 31.7921 16.586C32.1174 17.0055 32.379 17.4298 32.5746 17.8587C32.7702 18.2876 32.9092 18.7024 32.9941 19.1031C33.0789 19.5037 33.1237 19.8501 33.1331 20.1377H33.1378ZM23.5671 18.264C23.5576 18.3112 23.5388 18.4691 23.5105 18.7401C23.4916 19.0111 23.4634 19.3599 23.4257 19.7889C23.3974 20.2084 23.3644 20.6891 23.329 21.2288C23.2913 21.7685 23.2536 22.3342 23.2183 22.921C23.1806 23.5078 23.1428 24.1064 23.1075 24.7121C23.0792 25.3084 23.0604 25.8834 23.0509 26.4326C23.0321 26.9911 23.0179 27.5709 23.0085 28.1671C22.9991 28.754 22.9944 29.3526 22.9944 29.9583C22.9944 30.6582 23.0085 31.3487 23.0368 32.0275C23.0745 32.7086 23.1334 33.3661 23.2183 34.0001C23.256 34.2146 23.2418 34.3819 23.1758 34.5044C23.1099 34.6246 23.0792 34.733 23.0792 34.8273C23.0792 34.8556 23.0934 34.8839 23.1216 34.9122C23.1499 34.931 23.1546 34.9499 23.1358 34.9687C23.1075 35.0159 23.0556 35.0347 22.9826 35.0253C22.9166 35.0159 22.8577 34.9876 22.8011 34.9404C22.7728 34.9122 22.7493 34.8792 22.7304 34.8415C22.7116 34.7943 22.6927 34.7566 22.6739 34.7307C22.655 34.7024 22.6314 34.6883 22.6031 34.6883C22.5749 34.6788 22.5324 34.6977 22.4782 34.7448C22.4311 34.792 22.3769 34.8556 22.3109 34.9404C22.2544 35.0253 22.1954 35.1125 22.1294 35.2067C22.0635 35.2916 21.9998 35.3647 21.9338 35.4306C21.8678 35.5061 21.8042 35.5508 21.7382 35.5697C21.6817 35.5885 21.6133 35.6074 21.5285 35.6263C21.4531 35.6451 21.4083 35.6168 21.3894 35.5414C21.3706 35.5037 21.3517 35.4801 21.3329 35.4707C21.314 35.4613 21.2904 35.4471 21.2622 35.4283C21.2339 35.4189 21.2056 35.4 21.1773 35.3717C21.1585 35.3529 21.1443 35.3057 21.1349 35.2327C21.0878 35.0748 21.0336 34.9569 20.9676 34.8839C20.911 34.799 20.8827 34.7071 20.8827 34.6034C20.8639 34.4455 20.8167 33.9883 20.7437 33.2318C20.6777 32.4753 20.647 31.4312 20.647 30.0973C20.647 29.5647 20.6518 28.9873 20.6612 28.3627C20.68 27.7382 20.713 27.076 20.7578 26.376C20.8049 25.7515 20.8592 25.0751 20.9251 24.3468C20.9911 23.6186 21.0548 22.9069 21.1208 22.2069C21.1962 21.5069 21.2598 20.8541 21.3164 20.2484C21.3729 19.6427 21.413 19.1431 21.4413 18.7519C21.4507 18.6859 21.4743 18.6435 21.512 18.627C21.5497 18.6081 21.5992 18.594 21.6652 18.5846C21.7312 18.5751 21.8136 18.5657 21.9173 18.5563C22.0187 18.5374 22.1412 18.4997 22.2803 18.4455C22.391 18.389 22.523 18.3348 22.6715 18.2782C22.8294 18.2216 22.9732 18.1792 23.1051 18.1533C23.2442 18.1156 23.3573 18.1014 23.4398 18.1109C23.5317 18.1203 23.5741 18.1721 23.5647 18.264H23.5671Z" fill="white"/>
</g>
<defs>
<radialGradient id="paint0_radial_1_2" cx="0" cy="0" r="1" gradientUnits="userSpaceOnUse" gradientTransform="translate(-0.528137 10.7851) rotate(60) scale(26.0374 31.9416)">
<stop stop-color="#E67300"/>
<stop offset="1" stop-color="#E67300" stop-opacity="0"/>
</radialGradient>
<radialGradient id="paint1_radial_1_2" cx="0" cy="0" r="1" gradientUnits="userSpaceOnUse" gradientTransform="translate(29.2672 32.4293) rotate(60) scale(24.6549 30.2456)">
<stop stop-color="#00B8E6"/>
<stop offset="1" stop-color="#00B8E6" stop-opacity="0"/>
</radialGradient>
<radialGradient id="paint2_radial_1_2" cx="0" cy="0" r="1" gradientUnits="userSpaceOnUse" gradientTransform="translate(35.7413 10.8999) rotate(60) scale(20.7385 25.4388)">
<stop stop-color="#8A00E6"/>
<stop offset="1" stop-color="#8A00E6" stop-opacity="0"/>
</radialGradient>
<radialGradient id="paint3_radial_1_2" cx="0" cy="0" r="1" gradientUnits="userSpaceOnUse" gradientTransform="translate(17.575 46.0976) rotate(60) scale(27.42 33.6376)">
<stop stop-color="#00E616"/>
<stop offset="1" stop-color="#00E616" stop-opacity="0"/>
</radialGradient>
<radialGradient id="paint4_radial_1_2" cx="0" cy="0" r="1" gradientUnits="userSpaceOnUse" gradientTransform="translate(3.17304 30.1025) rotate(60) scale(19.7016 24.1669)">
<stop stop-color="#FFE600" stop-opacity="0.78"/>
<stop offset="1" stop-color="#DA7005" stop-opacity="0"/>
</radialGradient>
<radialGradient id="paint5_radial_1_2" cx="0" cy="0" r="1" gradientUnits="userSpaceOnUse" gradientTransform="translate(27.537 -6.7488) rotate(60) scale(26.7287 32.7896)">
<stop stop-color="#E60000"/>
<stop offset="1" stop-color="#E60000" stop-opacity="0"/>
</radialGradient>
<radialGradient id="paint6_radial_1_2" cx="0" cy="0" r="1" gradientUnits="userSpaceOnUse" gradientTransform="translate(-1.46419 9.72913) rotate(60) scale(28.5721 35.051)">
<stop stop-color="#E67300"/>
<stop offset="1" stop-color="#E67300" stop-opacity="0"/>
</radialGradient>
<radialGradient id="paint7_radial_1_2" cx="0" cy="0" r="1" gradientUnits="userSpaceOnUse" gradientTransform="translate(30.0736 33.8261) rotate(60) scale(25.1158 30.8109)">
<stop stop-color="#00B8E6"/>
<stop offset="1" stop-color="#00B8E6" stop-opacity="0"/>
</radialGradient>
<radialGradient id="paint8_radial_1_2" cx="0" cy="0" r="1" gradientUnits="userSpaceOnUse" gradientTransform="translate(36.087 11.4986) rotate(60) scale(21.4298 26.2868)">
<stop stop-color="#8A00E6"/>
<stop offset="1" stop-color="#8A00E6" stop-opacity="0"/>
</radialGradient>
<radialGradient id="paint9_radial_1_2" cx="0" cy="0" r="1" gradientUnits="userSpaceOnUse" gradientTransform="translate(18.5975 48.434) rotate(60) scale(28.5721 35.051)">
<stop stop-color="#00E616"/>
<stop offset="1" stop-color="#00E616" stop-opacity="0"/>
</radialGradient>
<radialGradient id="paint10_radial_1_2" cx="0" cy="0" r="1" gradientUnits="userSpaceOnUse" gradientTransform="translate(3.51868 30.7011) rotate(60) scale(21.4298 26.2868)">
<stop stop-color="#FFE600" stop-opacity="0.78"/>
<stop offset="1" stop-color="#DA7005" stop-opacity="0"/>
</radialGradient>
<radialGradient id="paint11_radial_1_2" cx="0" cy="0" r="1" gradientUnits="userSpaceOnUse" gradientTransform="translate(26.8457 -7.9461) rotate(60) scale(28.5721 35.051)">
<stop stop-color="#E60000"/>
<stop offset="1" stop-color="#E60000" stop-opacity="0"/>
</radialGradient>
<radialGradient id="paint12_radial_1_2" cx="0" cy="0" r="1" gradientUnits="userSpaceOnUse" gradientTransform="translate(-0.528137 10.7851) rotate(60) scale(26.0374 31.9416)">
<stop stop-color="#E67300"/>
<stop offset="1" stop-color="#E67300" stop-opacity="0"/>
</radialGradient>
<radialGradient id="paint13_radial_1_2" cx="0" cy="0" r="1" gradientUnits="userSpaceOnUse" gradientTransform="translate(29.2672 32.4293) rotate(60) scale(24.6549 30.2456)">
<stop stop-color="#00B8E6"/>
<stop offset="1" stop-color="#00B8E6" stop-opacity="0"/>
</radialGradient>
<radialGradient id="paint14_radial_1_2" cx="0" cy="0" r="1" gradientUnits="userSpaceOnUse" gradientTransform="translate(35.7413 10.8999) rotate(60) scale(20.7385 25.4388)">
<stop stop-color="#8A00E6"/>
<stop offset="1" stop-color="#8A00E6" stop-opacity="0"/>
</radialGradient>
<radialGradient id="paint15_radial_1_2" cx="0" cy="0" r="1" gradientUnits="userSpaceOnUse" gradientTransform="translate(17.575 46.0976) rotate(60) scale(27.42 33.6376)">
<stop stop-color="#00E616"/>
<stop offset="1" stop-color="#00E616" stop-opacity="0"/>
</radialGradient>
<radialGradient id="paint16_radial_1_2" cx="0" cy="0" r="1" gradientUnits="userSpaceOnUse" gradientTransform="translate(3.17304 30.1025) rotate(60) scale(19.7016 24.1669)">
<stop stop-color="#FFE600" stop-opacity="0.78"/>
<stop offset="1" stop-color="#DA7005" stop-opacity="0"/>
</radialGradient>
<radialGradient id="paint17_radial_1_2" cx="0" cy="0" r="1" gradientUnits="userSpaceOnUse" gradientTransform="translate(27.537 -6.7488) rotate(60) scale(26.7287 32.7896)">
<stop stop-color="#E60000"/>
<stop offset="1" stop-color="#E60000" stop-opacity="0"/>
</radialGradient>
<radialGradient id="paint18_radial_1_2" cx="0" cy="0" r="1" gradientUnits="userSpaceOnUse" gradientTransform="translate(-1.46419 9.72913) rotate(60) scale(28.5721 35.051)">
<stop stop-color="#E67300"/>
<stop offset="1" stop-color="#E67300" stop-opacity="0"/>
</radialGradient>
<radialGradient id="paint19_radial_1_2" cx="0" cy="0" r="1" gradientUnits="userSpaceOnUse" gradientTransform="translate(30.0736 33.8261) rotate(60) scale(25.1158 30.8109)">
<stop stop-color="#00B8E6"/>
<stop offset="1" stop-color="#00B8E6" stop-opacity="0"/>
</radialGradient>
<radialGradient id="paint20_radial_1_2" cx="0" cy="0" r="1" gradientUnits="userSpaceOnUse" gradientTransform="translate(36.087 11.4986) rotate(60) scale(21.4298 26.2868)">
<stop stop-color="#8A00E6"/>
<stop offset="1" stop-color="#8A00E6" stop-opacity="0"/>
</radialGradient>
<radialGradient id="paint21_radial_1_2" cx="0" cy="0" r="1" gradientUnits="userSpaceOnUse" gradientTransform="translate(18.5975 48.434) rotate(60) scale(28.5721 35.051)">
<stop stop-color="#00E616"/>
<stop offset="1" stop-color="#00E616" stop-opacity="0"/>
</radialGradient>
<radialGradient id="paint22_radial_1_2" cx="0" cy="0" r="1" gradientUnits="userSpaceOnUse" gradientTransform="translate(3.51868 30.7011) rotate(60) scale(21.4298 26.2868)">
<stop stop-color="#FFE600" stop-opacity="0.78"/>
<stop offset="1" stop-color="#DA7005" stop-opacity="0"/>
</radialGradient>
<radialGradient id="paint23_radial_1_2" cx="0" cy="0" r="1" gradientUnits="userSpaceOnUse" gradientTransform="translate(26.8457 -7.9461) rotate(60) scale(28.5721 35.051)">
<stop stop-color="#E60000"/>
<stop offset="1" stop-color="#E60000" stop-opacity="0"/>
</radialGradient>
<clipPath id="clip0_1_2">
<rect width="32" height="32" fill="white" transform="translate(9 9)"/>
</clipPath>
</defs>
</svg>
