<svg width="50" height="50" viewBox="0 0 50 50" fill="none" xmlns="http://www.w3.org/2000/svg">
<rect x="0.5" y="0.5" width="49" height="49" fill="#121212" stroke="#121212"/>
<g clip-path="url(#clip0_1_2)">
<path d="M38.38 24.21C39.27 24.21 40.08 23.81 40.83 23.05C40.98 23.32 41.05 23.62 41.04 23.93C41.03 24.27 40.96 24.61 40.83 24.93L40.88 25C42.28 24.93 43.09 24.53 43.91 23.88C44 24.47 44 24.74 44 25.45C44 28.49 41.32 31.41 37.77 31.41C34.22 31.41 31.57 28.51 31.57 25.16H31.2C30.97 25.8 30.87 26.49 30.97 27.42C27.08 29.01 26.03 31.55 26.03 34H23.68C23.56 32.68 23.68 31.35 24.03 30.08C24.33 29.01 24.89 27.63 25.94 26.57L25.64 26.24C24.24 27.38 24.01 27.81 22.8 29.42C21.8 29.63 20.96 30.23 19.54 30.23C18.63 30.23 17.68 30.09 16.14 29.35C16.58 28.57 16.89 27.85 16.96 26.55H16.49C15.56 30.42 11.87 31.06 10.29 31.35C8.89 31.59 8.4 32.66 8.4 33.7C8.4 33.8 8.4 33.91 8.42 34.01H7.07C7.02 33.65 7 33.3 7 32.96C7 32.2 7.05 31.44 7.4 30.79C8.66 28.63 9.71 27.82 9.71 26.16C9.71 24.5 8.47 23.31 8.4 23.24C9.12 23.12 9.38 22.41 9.87 21.65C10.94 19.96 12.74 19.7 13.67 19.7C14.6 19.7 15.12 19.82 16.02 19.82C20.19 19.82 22.29 15 27.37 15C30.59 15 32.8 17.38 33.13 20.44L33.2 20.46C33.62 19.99 34.34 19.34 35.18 19.06C35.18 19.18 35.16 19.32 35.16 19.46C35.16 21.74 35.77 24.21 38.38 24.21ZM16.47 34H14.35C13.63 33.31 13.16 32.27 13.04 31.67C14.35 31.1 14.93 30.67 15.65 29.96L16.07 30.29C15.8 30.76 15.67 31.29 15.67 31.83C15.67 32.35 15.67 32.66 16.46 33.99L16.47 34ZM29.22 34H27.31C27.31 31.39 28.06 30.46 29.13 29.42L29.46 29.68C29.02 30.68 28.97 31.37 28.97 32.03C28.97 32.89 29.06 33.46 29.23 34H29.22Z" fill="url(#paint0_radial_1_2)"/>
</g>
<defs>
<radialGradient id="paint0_radial_1_2" cx="0" cy="0" r="1" gradientUnits="userSpaceOnUse" gradientTransform="translate(7.86995 18.4033) rotate(27.18) scale(41.59 33.8)">
<stop stop-color="#FED681"/>
<stop offset="1" stop-color="#F25E40"/>
</radialGradient>
<clipPath id="clip0_1_2">
<rect width="37" height="19" fill="white" transform="translate(7 15)"/>
</clipPath>
</defs>
</svg>
