<svg width="50" height="50" viewBox="0 0 50 50" fill="none" xmlns="http://www.w3.org/2000/svg">
<rect x="0.5" y="0.5" width="49" height="49" fill="#121212" stroke="#121212"/>
<g clip-path="url(#clip0_1_2)">
<path d="M9.22226 22.3747C8.78453 26.6717 9.83874 30.4302 12.4972 33.6937C14.5438 36.2055 17.1632 37.8762 20.3076 38.6669C27.1989 40.3972 33.9505 37.136 37.0856 31.2965C40.3101 25.2875 39.0795 17.9928 34.049 13.3199C29.3348 8.9426 22.8102 8.66071 18.9623 10.3704C24.1188 9.03886 28.7184 10.0427 32.5594 13.7828C35.3507 16.5009 36.6479 19.9041 36.5425 23.7979C36.35 30.9092 30.4532 37.1681 22.4756 36.8839C15.0159 36.6226 8.9862 30.3111 9.49039 22.3495C9.6279 29.9375 14.75 33.7923 19.1273 34.8167C24.3777 36.0451 29.8574 33.7029 32.6258 29.0323C35.4172 24.325 34.8076 18.4305 31.017 14.2985C27.5656 10.5308 21.6826 8.95865 16.1365 11.7638C19.5123 9.12824 26.8804 7.29711 33.5494 11.4498C40.301 15.6529 42.8769 24.2768 39.5584 31.6861C36.3385 38.8777 28.1615 42.5927 20.4634 40.3582C12.9716 38.1856 7.84949 30.5655 9.22226 22.3747Z" fill="#B684FD"/>
<path d="M9.87082 21.0751C9.74936 26.1239 13.0885 29.8916 17.0968 31.0329C21.1395 32.1856 25.5672 30.6204 27.9621 27.1621C30.428 23.6053 30.3226 18.9278 27.7077 15.4534C25.4663 12.4741 20.7384 10.1892 15.449 12.5268C18.3848 10.6017 23.6604 10.2351 27.6366 13.3358C31.8008 16.5833 33.1575 22.2921 30.8726 26.8848C28.4548 31.7456 23.1883 34.1726 18.0456 32.8113C13.0197 31.4798 9.3483 26.6923 9.87082 21.0751Z" fill="#B684FD"/>
<path d="M14.3787 13.497C17.1289 11.7094 21.1463 11.7232 24.2242 14.2235C27.2539 16.6871 28.1912 21.0346 26.4747 24.5846C24.7582 28.1345 20.8255 30.0917 17.0005 29.2804C12.896 28.4095 10.5217 25.0086 10.2535 22.004C10.8196 24.2454 12.0274 26.0192 14.0648 27.1582C16.1044 28.2972 18.2518 28.4966 20.4542 27.7083C24.4373 26.2828 26.4609 22.1026 25.228 18.1126C24.5267 15.8461 23.0347 14.2281 20.8369 13.3068C18.6689 12.3992 16.5078 12.5299 14.3787 13.4947V13.497Z" fill="#B684FD"/>
</g>
<defs>
<clipPath id="clip0_1_2">
<rect width="32" height="32.0046" fill="white" transform="translate(9 9)"/>
</clipPath>
</defs>
</svg>
