<svg width="50" height="50" viewBox="0 0 50 50" fill="none" xmlns="http://www.w3.org/2000/svg">
<rect x="0.5" y="0.5" width="49" height="49" fill="#121212" stroke="#121212"/>
<g clip-path="url(#clip0_1_2)">
<path d="M24.9944 41C20.721 41 16.7033 39.334 13.6817 36.3073C10.6585 33.2822 8.99683 29.2619 9 24.9857C9.00318 20.7143 10.6697 16.6988 13.6913 13.68C16.7129 10.6628 20.7305 9 25.0024 9H25.0199C29.2901 9.00477 33.3046 10.6723 36.3215 13.6927C39.3399 16.7147 41 20.7317 41 25.0032C41 29.2762 39.3335 33.2933 36.3135 36.3137C33.2919 39.334 29.2742 40.9984 25.0008 41H24.9944ZM25.0008 14.6608C19.0863 14.6608 14.2759 19.2995 14.2759 25C14.2759 30.7005 19.0879 35.3392 25.0008 35.3392C30.9137 35.3392 35.7257 30.7005 35.7257 25C35.7257 19.2995 30.9137 14.6608 25.0008 14.6608Z" fill="#E52521"/>
<path d="M25.0183 9.77344C16.6048 9.7655 9.77845 16.5756 9.7721 24.9866C9.76574 33.4023 16.5874 40.2315 25.0008 40.2283C33.4111 40.2251 40.2264 33.4118 40.2295 25.004C40.2295 16.5979 33.4238 9.78139 25.0199 9.77344H25.0183ZM25.0008 36.1126C18.651 36.1126 13.5038 31.137 13.5038 25.0009C13.5038 18.8648 18.6494 13.8891 25.0008 13.8891C31.3522 13.8891 36.4978 18.8648 36.4978 25.0009C36.4978 31.137 31.3506 36.1126 25.0008 36.1126Z" fill="#FDD7AB"/>
<path d="M21.1468 20.8017C21.0912 20.8112 21.0372 20.8017 20.9832 20.7842C20.8942 20.7461 20.8354 20.6729 20.7782 20.6014C20.4097 20.142 20.076 19.6571 19.7599 19.158C19.663 18.9672 19.5438 18.7876 19.4422 18.5984C19.4025 18.5253 19.3739 18.4474 19.3198 18.3822C19.3055 18.3631 19.2976 18.3409 19.2928 18.3186C19.2754 18.2201 19.2198 18.1358 19.1753 18.05C19.0228 17.7479 18.8989 17.4332 18.7686 17.1216C18.7463 17.0692 18.6892 16.9881 18.7463 16.9563C18.8019 16.9245 18.8194 17.0262 18.8623 17.0612C18.8766 17.0803 18.8877 17.0994 18.8957 17.1216C18.9926 17.3267 19.1387 17.5015 19.2769 17.6764C19.4501 17.8974 19.6471 18.0993 19.8504 18.2916C20.2635 18.6811 20.6924 19.0515 21.177 19.3519C21.2373 19.3885 21.2993 19.4235 21.366 19.4473C21.3835 19.4203 21.3597 19.4107 21.3469 19.4028C21.1182 19.2375 20.9244 19.034 20.7321 18.8289C20.2857 18.3504 19.8902 17.829 19.5121 17.2949C19.2897 16.9801 19.0958 16.6479 18.9259 16.2998C18.7972 16.0359 18.6923 15.7624 18.5827 15.4922C18.5795 15.4843 18.5764 15.4747 18.5732 15.4668C18.5176 15.2585 18.4667 15.0503 18.3968 14.8468C18.3937 14.8373 18.3905 14.8277 18.3873 14.8198C18.3714 14.6417 18.3285 14.4685 18.3015 14.292C18.2904 14.2252 18.265 14.1489 18.3111 14.0949C18.3746 14.0202 18.4588 13.9629 18.5541 13.9327C18.6145 13.9137 18.6383 13.9598 18.6463 14.009C18.6574 14.0822 18.6637 14.1569 18.678 14.2284C18.7289 14.4844 18.7924 14.7371 18.8798 14.9851C18.9783 15.2617 19.0895 15.5319 19.2166 15.7942C19.3389 16.0454 19.4596 16.2998 19.6185 16.5303C19.6884 16.5907 19.7154 16.6829 19.7726 16.7512C20.0316 17.1423 20.2937 17.5317 20.5908 17.8958C20.8259 18.1819 21.0689 18.4601 21.3327 18.7208C21.876 19.2549 22.5067 19.6571 23.2057 19.956C23.22 19.9623 23.2343 19.9687 23.247 19.9751C23.3264 20.0212 23.4169 20.0434 23.5027 20.0752C23.5853 20.1054 23.6695 20.1245 23.7522 20.1547C23.722 20.1452 23.6997 20.1261 23.6775 20.1054C23.6378 20.053 23.5742 20.0371 23.5202 20.0069C23.5123 20.0037 23.5059 19.9989 23.498 19.9926C23.3105 19.8733 23.1294 19.7462 22.9499 19.6142C22.7307 19.4537 22.5353 19.2661 22.324 19.0944C22.1476 18.9513 21.9761 18.7987 21.8108 18.6429C21.6949 18.5332 21.5757 18.4267 21.4709 18.3059C21.366 18.1851 21.2485 18.077 21.142 17.9562C20.9307 17.7146 20.7242 17.4698 20.5288 17.217C20.3509 16.9881 20.1841 16.7512 20.0204 16.5112C19.8854 16.3125 19.7551 16.1106 19.6344 15.9023C19.5216 15.71 19.412 15.5176 19.3151 15.3189C19.1737 15.0312 19.0339 14.7435 18.9338 14.4367C18.8734 14.2491 18.8274 14.0567 18.7702 13.8692C18.7559 13.8246 18.7622 13.7897 18.8051 13.7674C18.8433 13.7483 18.8766 13.7165 18.9227 13.715C18.9958 13.777 19.0101 13.8692 19.0387 13.9518C19.4422 15.0709 20.0252 16.0852 20.8005 16.9897C21.0959 17.3346 21.4089 17.6637 21.7378 17.9769C22.3049 18.5158 22.9372 18.9656 23.6251 19.3408C23.6489 19.3535 23.6743 19.3662 23.6965 19.3837C23.6028 19.309 23.5123 19.2327 23.4217 19.1564C23.328 19.0769 23.2343 18.9958 23.1437 18.9116C22.6639 18.4617 22.1794 18.0182 21.7203 17.5461C20.8831 16.6845 20.1523 15.7434 19.582 14.6831C19.4183 14.3778 19.2547 14.0742 19.0974 13.7658C19.08 13.7309 19.0545 13.6975 19.0641 13.653C19.0958 13.6116 19.1371 13.5782 19.1657 13.5353C19.2182 13.5353 19.2372 13.5814 19.2595 13.6148C19.5915 14.0933 19.9998 14.5018 20.4208 14.8977C20.9037 15.3523 21.4216 15.7688 21.9649 16.1535C22.4225 16.4762 22.8943 16.7735 23.3899 17.0342C23.8586 17.279 24.3479 17.4761 24.8547 17.6287C25.2804 17.7575 25.7062 17.8783 26.1446 17.9594C26.0779 17.9451 26.016 17.9212 25.954 17.8958C25.3773 17.6589 24.8197 17.3791 24.2685 17.0866C23.7887 16.8323 23.3105 16.5748 22.8498 16.2854C22.181 15.8658 21.5471 15.4 20.9514 14.885C20.6575 14.6306 20.3636 14.3747 20.0999 14.0885C19.8711 13.8405 19.6249 13.6116 19.3786 13.3827C19.3548 13.3605 19.323 13.3382 19.3516 13.2969C19.5423 13.4654 19.7345 13.6339 19.9235 13.804C20.0363 13.9057 20.1714 13.9836 20.2746 14.0981C20.3525 14.2093 20.4653 14.2841 20.5653 14.3715C20.6591 14.4526 20.7576 14.5273 20.8624 14.5925C21.1198 14.7546 21.3517 14.9469 21.5852 15.1393C21.9316 15.4254 22.3144 15.6575 22.6957 15.8912C23.0563 16.1122 23.4265 16.3172 23.7998 16.516C24.1573 16.7051 24.5226 16.8784 24.8912 17.0453C25.3313 17.2424 25.7745 17.4284 26.2288 17.589C26.2495 17.5969 26.2686 17.6081 26.2892 17.6112C26.6355 17.6605 26.9437 17.8274 27.2742 17.9292C27.8779 18.112 28.4879 18.263 29.1106 18.3616C29.3902 18.4061 29.6714 18.449 29.9494 18.511C29.9749 18.5173 30.0019 18.5285 30.0416 18.5173C29.7969 18.4347 29.5793 18.317 29.3616 18.2042C29.0106 18.0245 28.6658 17.8306 28.337 17.6096C28.0876 17.4427 27.8556 17.2567 27.6173 17.0723C27.4187 16.9181 27.1931 16.7957 26.9819 16.6574C26.9421 16.632 26.8738 16.6066 26.8929 16.5541C26.9135 16.4985 26.9803 16.5287 27.0248 16.5398C27.1947 16.5827 27.3695 16.6034 27.5411 16.6479C28.5784 16.9134 28.9613 17.0278 29.8748 17.3807C30.434 17.5969 30.9725 17.8592 31.4888 18.1644C31.7875 18.3409 32.0036 18.6032 32.2212 18.8639C32.2832 18.937 32.3403 19.0133 32.3959 19.0912C32.4214 19.1278 32.4738 19.1739 32.4373 19.212C32.3991 19.2518 32.3531 19.1993 32.3181 19.1739C32.1513 19.0499 31.9813 18.9354 31.7986 18.8337C31.6334 18.7415 31.4618 18.6668 31.2601 18.6175C31.403 18.7526 31.5254 18.8861 31.6382 19.0292C31.9797 19.4648 32.2498 19.9417 32.4595 20.4536C32.4722 20.4838 32.496 20.5219 32.4595 20.5458C32.4293 20.5648 32.4023 20.5315 32.3816 20.5108C32.2307 20.355 32.0671 20.2151 31.8828 20.0991C31.6906 19.9782 31.4825 19.894 31.2585 19.859C31.2458 19.8829 31.2632 19.8892 31.2728 19.8972C31.6096 20.1913 31.8526 20.5505 32.0194 20.9638C32.1878 21.3819 32.2387 21.8143 32.1672 22.2547C32.1179 22.5567 32.0433 22.854 31.9654 23.1496C31.8876 23.439 31.824 23.733 31.7303 24.0176C31.5794 24.4691 31.411 24.9142 31.1441 25.3132C31.0964 25.3847 31.0615 25.4626 31.0456 25.5484C31.0265 25.6311 30.9741 25.6979 30.9376 25.7726C30.8375 25.9824 30.7787 26.2082 30.7168 26.4307C30.7088 26.4593 30.7168 26.5038 30.6643 26.5007C30.6262 26.4434 30.6564 26.3878 30.6643 26.3401C30.5229 26.7009 30.3768 27.2859 30.2846 27.8169C30.2147 28.2223 30.183 28.6292 30.1687 29.0409C30.1528 29.5004 30.129 29.9598 30.1051 30.4176C30.0908 30.7037 30.0797 30.9915 30.0591 31.2776C30.0225 31.826 29.9606 32.3729 29.8414 32.9102C29.7906 33.1391 29.7572 33.3728 29.6476 33.5858C29.5014 33.8735 29.2965 34.1167 29.0534 34.325C28.3624 34.9195 27.5585 35.3154 26.715 35.6381C26.3941 35.7605 26.0652 35.8574 25.7252 35.9067C25.6696 35.9147 25.6379 35.9401 25.6204 35.9941C25.4806 36.4122 25.228 36.7604 24.9373 37.0862C24.5496 37.5218 24.0921 37.8699 23.5949 38.1688C23.5695 38.1847 23.5409 38.199 23.5139 38.2149C23.4916 38.2292 23.4614 38.2292 23.4424 38.2562C23.4344 38.2594 23.4567 38.2626 23.4455 38.2562C23.4408 38.2531 23.4424 38.2499 23.4471 38.2483C23.5504 38.2133 23.6537 38.1927 23.7585 38.2451C23.6346 38.2753 23.5075 38.2833 23.3836 38.2849C22.6925 38.2976 22.0031 38.2626 21.3152 38.1942C21.2024 38.1831 21.088 38.1752 20.9752 38.1656C20.9514 38.1545 20.926 38.1624 20.9021 38.1593C20.8195 38.1513 20.7623 38.1179 20.7258 38.0353C20.5987 37.7475 20.5336 37.4439 20.4732 37.1371C20.4287 36.9193 20.3683 36.7063 20.3493 36.4822C20.3 36.9686 20.3175 37.312 20.4097 37.6569C20.4414 37.7762 20.4875 37.8906 20.5256 38.0083C20.5336 38.0305 20.5701 38.0846 20.4938 38.075L20.4891 38.0718H20.4827C20.2365 38.0528 20.0872 37.8827 19.9474 37.7094C19.6217 37.3024 19.4692 36.8303 19.4501 36.3121C19.4453 36.169 19.4152 36.0259 19.4581 35.9194C19.4358 36.0689 19.3977 36.2485 19.3659 36.4313C19.304 36.7874 19.3214 37.1387 19.4056 37.4868C19.4088 37.498 19.412 37.5107 19.4136 37.5234C19.4168 37.5472 19.4247 37.5743 19.4009 37.5918C19.377 37.6108 19.3532 37.5965 19.331 37.5838C19.207 37.5155 19.0863 37.4407 18.9799 37.3438C18.57 36.9718 18.3587 36.5076 18.2809 35.9608C18.203 35.4107 18.2698 34.8846 18.454 34.3663C18.4858 34.2757 18.4858 34.1772 18.5255 34.0897C18.5605 34.0261 18.5589 33.9498 18.5907 33.9006C18.5573 33.9769 18.5144 34.0643 18.489 34.1581C18.4572 34.2423 18.4175 34.3234 18.3873 34.4061C18.3746 34.441 18.3587 34.4776 18.3158 34.4824C18.2761 34.4855 18.257 34.4522 18.2412 34.422C18.0855 34.1374 17.9774 33.8386 17.9504 33.5127C17.9298 33.2663 17.9631 33.0262 18.0124 32.7878C18.0791 32.4587 18.1252 32.1249 18.2205 31.8022C18.2825 31.6416 18.3444 31.4827 18.4064 31.3237C18.4556 31.3285 18.4477 31.3714 18.4509 31.4C18.4731 31.551 18.5017 31.7005 18.5335 31.8499C18.6478 32.3792 18.8162 32.8863 19.1753 33.3076C19.2166 33.3569 19.2166 33.4062 19.2086 33.4634C19.1785 33.6685 19.1419 33.8703 19.153 34.0802C19.1673 34.3155 19.2261 34.5364 19.3675 34.7288C19.4962 34.9036 19.628 34.9497 19.8346 34.883C20.0188 34.8226 20.1634 34.7065 20.2873 34.5603C20.3239 34.5173 20.3525 34.4712 20.389 34.4283C20.4716 34.3441 20.5097 34.2376 20.551 34.1311C20.6019 34.0023 20.64 33.8688 20.6654 33.7336C20.6686 33.7241 20.675 33.7162 20.6845 33.7114C20.6956 33.7098 20.7035 33.7114 20.7099 33.7209C20.7782 34.0452 21.0388 34.1867 21.2977 34.3139C21.6043 34.4633 21.9363 34.5412 22.2731 34.5968C22.4717 34.6286 22.6719 34.6302 22.8705 34.6525C22.9229 34.6588 22.9753 34.6509 23.0277 34.6429C23.0802 34.635 23.1326 34.627 23.1818 34.6525C23.2215 34.697 23.2072 34.7526 23.2072 34.8035C23.2072 35.0085 23.2327 35.2073 23.2899 35.406C23.355 35.6301 23.5472 35.7938 23.8093 35.7684C24.1271 35.7382 24.4194 35.6365 24.6561 35.4171C24.8165 35.2677 24.942 35.0864 25.0564 34.8989C25.1041 34.8194 25.1486 34.7383 25.1915 34.6572C25.2375 34.573 25.3027 34.5285 25.398 34.5269C25.4361 34.5269 25.4742 34.5301 25.5108 34.5173C25.5203 34.5142 25.5298 34.5126 25.541 34.511C25.7602 34.511 25.9778 34.5396 26.1971 34.5237C26.4671 34.5046 26.7356 34.4681 27.0041 34.4267C27.2392 34.3886 27.468 34.3266 27.6983 34.2662C27.7825 34.2439 27.8588 34.2026 27.9303 34.1533C28.5387 33.7193 29.0185 33.1804 29.287 32.4699C29.395 32.1821 29.4522 31.8833 29.4967 31.5796C29.5523 31.1997 29.5523 30.8166 29.5698 30.4351C29.5856 30.0901 29.5745 29.7436 29.6063 29.3986C29.6238 29.2126 29.6142 29.0282 29.6238 28.8438C29.6301 28.7087 29.6571 28.5752 29.6683 28.44C29.6762 28.3288 29.6762 28.2191 29.6905 28.1078C29.7429 27.6659 29.8255 27.2287 29.8922 26.79C29.9494 26.4148 30.0193 26.0412 30.0606 25.6645C30.102 25.3052 30.1448 24.946 30.1242 24.5835C30.1035 24.2211 30.0035 23.8841 29.7683 23.5979C29.6953 23.5089 29.6031 23.439 29.5062 23.377C29.4506 23.342 29.4395 23.3038 29.4506 23.2387C29.5475 22.6473 29.4665 22.1052 29.036 21.6458C28.7913 21.3835 28.5038 21.2007 28.1781 21.0624C27.7825 20.8955 27.3727 20.789 26.9469 20.7365C26.3337 20.6618 25.7284 20.6872 25.1279 20.8319C24.7133 20.932 24.3225 21.0862 23.9476 21.285C23.892 21.3088 23.8379 21.3406 23.7792 21.3628C23.7093 21.3915 23.6521 21.3803 23.5965 21.3231C23.4678 21.1959 23.3343 21.0719 23.1945 20.9559C23.1771 20.9416 23.1596 20.9305 23.1389 20.9225C22.9292 20.7667 22.7021 20.6459 22.4526 20.5648C22.3589 20.5219 22.2604 20.5028 22.1572 20.5028C22.0412 20.5028 21.9268 20.4838 21.8077 20.506C21.5868 20.5458 21.3914 20.6364 21.2151 20.7731C21.1929 20.7906 21.1738 20.8112 21.1436 20.8112H21.1404L21.1468 20.8017Z" fill="#1D2942"/>
<path d="M20.6877 33.7106C20.6877 33.7106 20.6845 33.7217 20.6845 33.7281C20.6289 33.9777 20.5542 34.2193 20.4112 34.4355C20.2651 34.6517 20.084 34.8266 19.8282 34.9108C19.6392 34.9728 19.4898 34.914 19.3691 34.7646C19.2086 34.5643 19.1451 34.3306 19.1308 34.0778C19.1181 33.8537 19.1578 33.6359 19.1928 33.4165C19.1975 33.3847 19.2039 33.3593 19.1769 33.3323C18.9576 33.1129 18.829 32.8411 18.7178 32.5581C18.6288 32.3308 18.5573 32.0987 18.5128 31.8586C18.5176 31.8586 18.5414 31.8475 18.5414 31.8459C18.5351 31.8205 18.5414 31.7966 18.5494 31.7728C18.6463 31.4469 18.7511 31.1258 18.8782 30.811C19.1086 30.2419 19.3008 29.6585 19.5359 29.091C19.7297 28.6205 19.9267 28.1499 20.1253 27.681C20.1904 27.5284 20.2921 27.4012 20.4097 27.2852C20.4383 27.2566 20.47 27.2295 20.5161 27.2422C20.5701 27.2661 20.5955 27.317 20.6273 27.3615C20.8259 27.6365 21.0912 27.7398 21.3819 27.6413C21.598 27.5681 21.7727 27.4362 21.9062 27.2486C21.9268 27.22 21.9363 27.1787 21.9808 27.1707C22.038 27.1898 22.0301 27.2375 22.0237 27.2788C21.9713 27.5983 21.9189 27.9179 21.841 28.2326C21.8331 28.2644 21.8251 28.2994 21.7886 28.3153C21.7552 28.301 21.7584 28.2692 21.7632 28.2437C21.8077 28.045 21.8426 27.8447 21.8887 27.6476C21.8919 27.6365 21.8919 27.6222 21.8998 27.6222C21.8617 27.6937 21.8585 27.778 21.8331 27.8574C21.733 28.1849 21.6091 28.5044 21.5185 28.8335C21.4995 28.9019 21.482 28.9702 21.4629 29.0386C21.4296 29.1546 21.4264 29.2627 21.5074 29.3629C21.5328 29.3947 21.5471 29.4344 21.5074 29.4694C21.3342 29.5028 21.1929 29.6093 21.0419 29.6887C20.8624 29.7841 20.6845 29.8827 20.4748 29.9002C20.3684 29.9081 20.2667 29.8922 20.1666 29.8541C20.084 29.8223 20.0474 29.7507 20.0204 29.6728C19.9632 29.5075 20.0093 29.3565 20.0808 29.2103C20.0697 29.2023 20.0617 29.2087 20.0554 29.2134C19.8298 29.4185 19.6455 29.6506 19.5915 29.9606C19.574 30.056 19.5756 30.1513 19.5899 30.2467C19.6074 30.3675 19.663 30.4677 19.7583 30.5456C19.7647 30.5519 19.771 30.5567 19.7774 30.5647C19.8091 30.6044 19.8536 30.6219 19.8965 30.6425C20.1205 30.757 20.3604 30.8095 20.6114 30.8063C20.8434 30.8031 21.0737 30.8238 21.3041 30.7904C21.6218 30.7443 21.9189 30.633 22.1985 30.4772C22.3192 30.4105 22.4336 30.3278 22.548 30.2499C22.5972 30.2165 22.6338 30.1704 22.6719 30.1243C22.7402 30.0512 22.8689 30.0337 22.9578 30.083C23.0849 30.3389 23.2899 30.5027 23.5488 30.6155C23.9333 30.7824 24.3352 30.8556 24.753 30.8635C25.147 30.8715 25.5346 30.8397 25.9159 30.7379C25.9604 30.7268 26.0048 30.7125 26.0525 30.7268C26.1033 30.7634 26.0779 30.8095 26.07 30.854C26.0191 31.0924 25.9175 31.3102 25.7951 31.5185C25.649 31.7696 25.5092 32.024 25.3043 32.2338C25.2518 32.2863 25.1915 32.3292 25.139 32.3785C25.7046 32.1623 26.07 31.7172 26.3051 31.1258C26.3845 30.9271 26.4243 30.7188 26.4894 30.5154C26.545 30.447 26.6308 30.4073 26.6848 30.3373C26.9088 30.1164 27.047 29.8572 27.0645 29.5266C27.0454 29.5552 27.0343 29.5759 27.0168 29.5918C26.904 29.7333 26.7738 29.8525 26.6212 29.951C26.4957 30.0321 26.3591 30.0639 26.213 30.0846C25.9032 30.1275 25.6299 30.0114 25.3519 29.9129C25.1835 29.8525 25.0167 29.7857 24.8515 29.7205C24.8022 29.7015 24.7498 29.6919 24.6974 29.6919C24.6831 29.6919 24.6672 29.6887 24.6529 29.6856C24.6116 29.6713 24.5671 29.6744 24.5258 29.6744C24.4607 29.6744 24.4242 29.6458 24.4384 29.5775C24.4575 29.4757 24.4369 29.3756 24.4242 29.2738C24.413 29.1785 24.3638 29.1006 24.3098 29.0243C24.2844 28.9909 24.2573 28.9813 24.2256 29.0147C23.9078 29.3406 23.49 29.4137 23.0675 29.471C23.0007 29.4805 22.9356 29.5043 22.8657 29.4916C22.7688 29.4519 22.6655 29.4726 22.5654 29.4535C22.4622 29.4328 22.3605 29.4121 22.262 29.3708C22.0571 29.2834 21.9729 29.1419 22.0078 28.9225C22.0491 28.6634 22.1031 28.4059 22.1619 28.1499C22.2652 27.7017 22.3494 27.2486 22.4082 26.7924C22.432 26.608 22.4669 26.4252 22.4908 26.2423C22.5019 26.1533 22.5432 26.0786 22.6083 26.0166C22.6592 25.9673 22.71 25.9181 22.7672 25.8751C22.9864 25.7162 23.077 25.5127 23.0341 25.2345C22.9896 24.9452 22.8943 24.6718 22.8053 24.3967C22.7465 24.2123 22.7084 24.0264 22.7211 23.8324C22.7275 23.7307 22.7418 23.6305 22.7656 23.5622C22.5972 23.7641 22.5924 24.0216 22.6735 24.2886C22.7005 24.3777 22.7275 24.4667 22.7624 24.5525C22.8419 24.7512 22.8911 24.9579 22.9277 25.1693C22.961 25.3585 22.88 25.5 22.7513 25.6224C22.6862 25.6828 22.6099 25.7305 22.5384 25.7861C22.4701 25.8386 22.4034 25.8942 22.3653 25.9753C22.3542 25.9975 22.3399 26.0182 22.3113 26.0214C22.27 25.9848 22.3001 25.934 22.289 25.891C22.1365 25.3251 21.5106 25.0374 21.0149 25.3458C20.9403 25.3919 20.8751 25.4539 20.7893 25.4841C20.7401 25.4364 20.7369 25.368 20.7131 25.3092C20.6321 25.1041 20.5129 24.9325 20.3255 24.8116C20.3112 24.8021 20.2921 24.791 20.3064 24.7687C20.4351 24.7465 20.5638 24.7687 20.6908 24.7783C20.8481 24.791 20.9975 24.8482 21.15 24.88C21.3009 24.9118 21.447 24.9595 21.598 24.996C21.7393 25.0294 21.8712 25.0914 22.0031 25.1534C22.1445 25.2186 22.2064 25.2027 22.2843 25.066C22.3367 24.9754 22.3796 24.8784 22.4193 24.7814C22.4685 24.6638 22.4717 24.5414 22.4606 24.4174C22.4542 24.3427 22.4304 24.2727 22.3843 24.2123C22.2271 24.0025 22.0301 23.8578 21.7632 23.8165C21.3628 23.7529 20.9657 23.7784 20.5701 23.8515C20.4398 23.8753 20.3096 23.9008 20.1809 23.9342C20.1491 23.9421 20.1158 23.9564 20.0824 23.9373C20.0824 23.8865 20.0903 23.8356 20.1158 23.7895C20.1936 23.6703 20.2301 23.532 20.2794 23.4016C20.443 22.9708 20.6003 22.54 20.8179 22.1346C21.0483 21.7054 21.3199 21.3064 21.6536 20.9519C21.7997 20.7961 21.9824 20.6912 22.1651 20.5895C22.2509 20.5418 22.3589 20.5068 22.4669 20.5466C22.7243 20.6117 22.9483 20.7405 23.1564 20.9011C23.3216 21.0394 23.4805 21.1808 23.633 21.3319C23.6711 21.37 23.6981 21.3907 23.7585 21.3621C23.8221 21.3319 23.8824 21.2953 23.9507 21.2762C24.0778 21.2651 24.1954 21.219 24.3145 21.1729C24.7625 20.998 25.2201 20.8581 25.7014 20.8279C26.3083 20.7898 26.904 20.8359 27.4585 21.1236C27.8699 21.3366 28.1908 21.6434 28.4482 22.0234C28.6849 22.3731 28.8469 22.7546 28.8978 23.1791C28.9121 23.2967 28.9152 23.4143 28.9009 23.5304C28.8835 23.6766 28.893 23.8197 28.8866 23.9659C28.8851 24.0295 28.9089 24.0788 28.9534 24.1217C29.4315 24.5859 29.6444 25.1677 29.7048 25.8195C29.7445 26.2376 29.6826 26.6429 29.5999 27.0499C29.5332 27.3805 29.457 27.708 29.3331 28.0228C29.1361 28.5188 28.8438 28.9575 28.499 29.3613C28.2591 29.6426 27.997 29.897 27.6713 30.0798C27.6094 30.1148 27.5951 30.1815 27.5744 30.2435C27.4807 30.5519 27.4362 30.8715 27.3854 31.1878C27.2853 31.8332 27.1391 32.4675 26.9533 33.0938C26.8039 33.5977 26.5227 33.9952 26.1081 34.3099C25.9318 34.445 25.7443 34.5197 25.5267 34.5356C25.4917 34.5547 25.452 34.5356 25.4171 34.5484C25.3186 34.5579 25.2518 34.5992 25.2058 34.6962C25.0946 34.9235 24.95 35.1318 24.7879 35.3273C24.5751 35.5848 24.2907 35.7025 23.9793 35.7756C23.946 35.7835 23.9126 35.7883 23.8792 35.7947C23.6139 35.8392 23.3629 35.7009 23.2819 35.4322C23.2311 35.2637 23.2009 35.0968 23.1945 34.9235C23.1914 34.8377 23.193 34.7502 23.1914 34.6644C23.1596 34.5118 23.1787 34.364 23.2295 34.2193C23.2629 34.1557 23.3216 34.1319 23.3884 34.1223C23.5981 34.0889 23.8078 34.0524 24.0238 33.9888C23.6568 33.9745 23.3073 33.9014 22.9531 33.868C22.6338 33.8378 22.3144 33.8076 21.9983 33.7567C21.5741 33.6883 21.1579 33.585 20.7576 33.4245C20.6638 33.3863 20.5638 33.3752 20.4525 33.3497C20.505 33.4435 20.5796 33.5008 20.6432 33.5644C20.6718 33.593 20.7067 33.6152 20.7115 33.6597C20.7131 33.682 20.7067 33.7011 20.6924 33.7186L20.6877 33.7106Z" fill="#DCA17D"/>
<path d="M31.0408 25.5326C31.0297 25.4611 31.0583 25.3991 31.0964 25.345C31.2124 25.1765 31.3077 24.9985 31.3951 24.8141C31.4809 24.6329 31.5555 24.4469 31.6239 24.2593C31.8208 23.7204 31.9416 23.1608 32.075 22.6045C32.1386 22.3422 32.1862 22.0767 32.1767 21.8017C32.1624 21.3693 32.0353 20.9719 31.8272 20.5983C31.6953 20.363 31.5285 20.1532 31.3315 19.9704C31.2998 19.9402 31.2648 19.9163 31.2331 19.8877C31.2188 19.8734 31.1917 19.8607 31.2029 19.8353C31.214 19.8098 31.241 19.8178 31.2601 19.8225C31.3983 19.8512 31.5349 19.8861 31.6652 19.945C31.9336 20.0658 32.1592 20.2406 32.3658 20.4473C32.3959 20.4775 32.4182 20.5141 32.477 20.5363C32.1767 19.7987 31.7859 19.1374 31.2219 18.5842C31.6874 18.6716 32.0576 18.9387 32.4325 19.2042C32.4071 19.1104 32.3435 19.0452 32.2879 18.9768C32.1719 18.8338 32.0528 18.6923 31.9336 18.5524C31.7287 18.3124 31.4602 18.1613 31.1902 18.0119C30.8534 17.8275 30.5039 17.6654 30.1496 17.5144C29.7588 17.3458 29.36 17.2044 28.9581 17.0692C28.6086 16.95 28.2528 16.853 27.8969 16.7593C27.8556 16.7481 27.8191 16.7227 27.7778 16.7084C27.6475 16.6607 27.5061 16.6591 27.3711 16.6241C27.236 16.5892 27.0946 16.5653 26.9564 16.5415C26.9421 16.5383 26.9262 16.5415 26.9088 16.5415C26.9088 16.5828 26.939 16.5971 26.9628 16.6114C27.1852 16.7434 27.4028 16.8848 27.6157 17.0295C27.7809 17.1424 27.9303 17.2838 28.0955 17.4031C28.3862 17.6161 28.6944 17.8037 29.0074 17.9785C29.2758 18.1296 29.5523 18.2631 29.8287 18.3982C29.9192 18.4427 30.0225 18.457 30.1099 18.5317C30.0003 18.5667 29.9049 18.5158 29.8096 18.5015C29.3918 18.4348 28.974 18.3664 28.561 18.2806C28.1225 18.19 27.6888 18.0755 27.2599 17.942C27.0152 17.8657 26.7896 17.7401 26.5386 17.6876C26.1097 17.5986 25.7173 17.4142 25.317 17.2505C24.8753 17.0708 24.4432 16.8642 24.0174 16.648C23.498 16.3857 22.9912 16.1011 22.4971 15.7927C22.1651 15.5861 21.8378 15.3731 21.5344 15.1267C21.4407 15.052 21.3581 14.9613 21.2627 14.8914C21.0928 14.7658 20.9148 14.6498 20.7401 14.5274C20.5764 14.4113 20.4208 14.2857 20.2825 14.1395C20.273 14.1299 20.2206 14.1141 20.2778 14.0918C20.2857 14.0982 20.2921 14.1029 20.2984 14.1093C20.408 14.1919 20.5161 14.2794 20.6352 14.3493C20.9053 14.521 21.1722 14.7006 21.4518 14.8564C22.2922 15.327 23.1898 15.6497 24.1286 15.8547C24.8006 16.0026 25.4806 16.1011 26.1653 16.1711C26.7483 16.2299 27.3313 16.2855 27.9144 16.3507C28.8819 16.4604 29.8366 16.6241 30.7596 16.9452C31.4173 17.1742 32.0385 17.4698 32.5755 17.9213C32.9615 18.244 33.2665 18.6287 33.4095 19.1199C33.5398 19.565 33.5255 20.0101 33.365 20.4473C33.3507 20.4838 33.338 20.5125 33.3682 20.549C33.4826 20.6826 33.5128 20.8479 33.5239 21.0148C33.5429 21.2914 33.5048 21.5632 33.4635 21.8351C33.3285 22.7253 32.9345 23.4994 32.4023 24.2116C32.2879 24.3642 32.1735 24.5184 32.0766 24.6838C32.0687 24.7394 32.0305 24.7696 31.9877 24.795C31.654 24.989 31.3522 25.2195 31.0917 25.5056C31.079 25.5199 31.0662 25.5438 31.0392 25.531L31.0408 25.5326Z" fill="#121329"/>
<path d="M23.7665 38.2404C23.6537 38.2245 23.5409 38.2483 23.4218 38.2404C23.5123 38.1863 23.6029 38.1339 23.6934 38.0782C24.0143 37.8811 24.3114 37.6554 24.591 37.4026C24.9135 37.1117 25.1883 36.7826 25.4107 36.4107C25.4854 36.2867 25.5489 36.1547 25.5902 36.0164C25.6157 35.9338 25.6427 35.8892 25.7459 35.8749C26.1193 35.8241 26.4751 35.7064 26.8262 35.5697C27.4505 35.3265 28.0495 35.0308 28.6023 34.6477C28.9709 34.3918 29.3093 34.104 29.5523 33.7162C29.6905 33.4952 29.7557 33.2504 29.8033 32.9976C29.8605 32.6924 29.9288 32.3904 29.9638 32.082C29.9892 31.869 30.0083 31.6544 30.0241 31.4398C30.0512 31.0662 30.075 30.691 30.0972 30.3175C30.1068 30.1664 30.1083 30.0154 30.1115 29.8644C30.1179 29.645 30.1354 29.4272 30.1369 29.2079C30.1449 28.5164 30.2323 27.836 30.4022 27.1651C30.461 26.9362 30.5007 26.701 30.5833 26.4784C30.6088 26.4069 30.6437 26.3401 30.6803 26.2559C30.7073 26.3496 30.6564 26.4228 30.6739 26.4991C30.7057 26.5341 30.693 26.5738 30.6866 26.6135C30.6358 26.9013 30.5818 27.1922 30.5611 27.4831C30.5389 27.8153 30.4849 28.1476 30.5182 28.4798C30.5579 28.8661 30.5675 29.2556 30.6501 29.6371C30.666 29.7102 30.693 29.7786 30.7104 29.8501C30.739 29.9773 30.7835 30.0981 30.8232 30.2221C30.8359 30.2602 30.8566 30.2968 30.8407 30.3381C30.828 30.5432 30.855 30.7451 30.8629 30.9486C30.8979 31.888 30.8836 32.826 30.7883 33.7623C30.7629 34.0118 30.7422 34.2598 30.6914 34.5062C30.6389 34.7606 30.4944 34.9482 30.2799 35.0849C30.1004 35.1993 29.9082 35.2899 29.708 35.3647C28.7882 35.7144 27.8922 36.1197 27.02 36.576C26.8739 36.6523 26.7404 36.7445 26.6117 36.8446C26.3862 37.0179 26.151 37.1785 25.935 37.3629C25.46 37.7666 24.9151 38.0146 24.3098 38.1418C24.1287 38.18 23.9508 38.2308 23.7649 38.2388L23.7665 38.2404Z" fill="#121329"/>
<path d="M30.6929 29.8727C30.596 29.5977 30.5659 29.3116 30.5404 29.0238C30.5166 28.7584 30.4832 28.4913 30.488 28.2242C30.4991 27.679 30.5595 27.1369 30.6596 26.5996C30.6659 26.5662 30.6691 26.5328 30.6723 26.4995C30.7136 26.358 30.7549 26.2165 30.7962 26.075C30.8518 25.8827 30.9392 25.7046 31.0393 25.5313C31.3046 25.2198 31.6271 24.9813 31.9766 24.7747C32.0179 24.7508 32.0481 24.719 32.0782 24.6856C32.1481 24.6984 32.2085 24.657 32.2721 24.6443C32.6787 24.5664 33.0902 24.7556 33.3063 25.1133C33.481 25.4026 33.5446 25.7221 33.5557 26.0496C33.5811 26.7824 33.3698 27.4548 33.0171 28.0891C32.9742 28.167 32.9425 28.2513 32.8757 28.3133C32.7741 28.4198 32.6978 28.5469 32.6009 28.6582C32.3197 28.9825 32.0147 29.2718 31.6255 29.4674C31.4444 29.558 31.2664 29.6597 31.0901 29.7599C30.9932 29.8139 30.8915 29.8616 30.7803 29.8791C30.7501 29.8839 30.7199 29.8982 30.6914 29.8743L30.6929 29.8727Z" fill="#DCA17D"/>
<path d="M19.7789 19.1502C20.0887 19.6255 20.4081 20.0929 20.7576 20.5396C20.8259 20.627 20.9069 20.7033 20.9831 20.7812C20.8227 20.7446 20.6765 20.6699 20.5336 20.5936C20.1761 20.4045 19.8441 20.1771 19.5359 19.9148C19.1927 19.6223 18.8909 19.2885 18.6256 18.9229C18.2967 18.4698 18.0442 17.9786 17.8583 17.4524C17.728 17.0836 17.647 16.7021 17.5866 16.3158C17.5199 15.8803 17.5215 15.4415 17.5421 15.0059C17.558 14.6356 17.6184 14.2668 17.701 13.9027C17.8138 13.4083 17.9647 12.9283 18.1855 12.472C18.1951 12.4529 18.2078 12.4355 18.2189 12.418C18.2443 12.4386 18.2411 12.4672 18.2396 12.4943C18.2205 12.7518 18.1951 13.0109 18.2094 13.27C18.2253 13.5562 18.23 13.8423 18.2729 14.1269C18.3126 14.3923 18.3476 14.6578 18.4111 14.9185C18.5462 15.4765 18.7479 16.0106 19.0196 16.513C19.2436 16.9279 19.4962 17.3269 19.7901 17.6988C19.9728 17.9309 20.1491 18.1694 20.3382 18.3967C20.5367 18.6336 20.7401 18.8641 20.9561 19.085C20.9847 19.1136 21.0419 19.1486 21.0101 19.1884C20.9784 19.2265 20.9339 19.1772 20.8989 19.1534C20.6257 18.9658 20.3763 18.7512 20.1285 18.5334C20.0014 18.4206 19.8774 18.3061 19.7567 18.1869C19.4771 17.9119 19.2245 17.613 19.0021 17.2887C18.9481 17.2108 18.9116 17.1202 18.8432 17.0518C18.7622 16.939 18.6796 16.8277 18.6431 16.7339C18.7066 16.869 18.7463 17.0518 18.8194 17.2251C18.9576 17.551 19.0958 17.8785 19.2563 18.1932C19.2769 18.2346 19.2976 18.2759 19.3135 18.3188C19.3214 18.3363 19.3278 18.3538 19.3341 18.3713C19.4692 18.6383 19.6153 18.899 19.7774 19.1518L19.7789 19.1502Z" fill="#ACDDF0"/>
<path d="M19.3547 13.2861C19.35 13.3147 19.3674 13.3322 19.3865 13.3497C19.5867 13.5245 19.7868 13.6994 19.9632 13.8965C20.1459 14.1016 20.346 14.2892 20.5462 14.4767C20.8544 14.7645 21.1737 15.0379 21.5057 15.2986C21.7917 15.5227 22.0808 15.7405 22.3827 15.9424C22.7433 16.1824 23.1087 16.4145 23.4868 16.6276C23.6965 16.7452 23.9078 16.8581 24.1175 16.9725C24.3542 17.1029 24.5972 17.2237 24.8387 17.3461C25.023 17.4383 25.2089 17.5273 25.3947 17.6147C25.6426 17.7308 25.8904 17.8468 26.1509 17.9327C26.1732 17.9406 26.1922 17.9549 26.2097 17.974C26.0953 17.9835 25.9889 17.9454 25.8809 17.9215C25.436 17.823 25.0023 17.691 24.5686 17.5512C24.1651 17.4208 23.7791 17.2523 23.4042 17.0599C23.015 16.8612 22.6416 16.6355 22.2794 16.3875C22.0681 16.2429 21.86 16.0966 21.6535 15.9456C21.3707 15.7389 21.1022 15.5132 20.8337 15.2875C20.497 15.0061 20.1872 14.6961 19.8806 14.3861C19.6311 14.1334 19.4103 13.8584 19.2038 13.5706C19.1927 13.5563 19.1784 13.5452 19.1657 13.5309C19.1132 13.5086 19.0958 13.4546 19.0672 13.4132C18.9449 13.2288 18.8432 13.0333 18.7526 12.8298C18.7447 12.8124 18.7383 12.7965 18.7336 12.7774C18.7288 12.7567 18.7193 12.7329 18.7399 12.717C18.7622 12.6995 18.778 12.7249 18.7987 12.7313C18.983 12.9157 19.1689 13.1017 19.3531 13.2861H19.3547Z" fill="#121329"/>
<path d="M18.5589 34.0851C18.292 34.8657 18.1538 35.6541 18.4286 36.4633C18.5986 36.9656 18.9322 37.3312 19.4183 37.5999C19.2261 36.991 19.3166 36.4156 19.4739 35.8449C19.4628 36.1263 19.4692 36.406 19.5232 36.6827C19.6105 37.1389 19.798 37.5443 20.1427 37.8685C20.2444 37.9639 20.362 38.0243 20.4907 38.0673C20.335 38.0736 20.1872 38.0212 20.0379 37.9894C19.4898 37.8765 18.9862 37.6571 18.5223 37.3424C18.1506 37.0896 17.9139 36.7478 17.8614 36.2995C17.8297 36.0309 17.844 35.7575 17.9123 35.492C17.9695 35.271 18.0092 35.0469 18.0997 34.8355C18.1268 34.7719 18.114 34.721 18.0648 34.6685C17.8154 34.4062 17.7201 34.0756 17.647 33.7306C17.5548 33.2935 17.6867 32.9104 17.8789 32.5336C17.9949 32.3079 18.0982 32.0774 18.1967 31.8453C18.2046 31.8294 18.2173 31.8151 18.2268 31.8008C18.2046 32.0249 18.1474 32.2427 18.1077 32.4637C18.0569 32.7419 17.9854 33.0185 17.9774 33.303C17.9663 33.7163 18.0854 34.0915 18.2951 34.4444C18.3015 34.4539 18.3094 34.4635 18.3237 34.481C18.3921 34.3681 18.4222 34.2473 18.4778 34.1376C18.5048 34.1233 18.5001 34.0899 18.516 34.0692C18.5271 34.0533 18.5287 34.02 18.5557 34.0327C18.5779 34.0422 18.5684 34.0692 18.5605 34.0883L18.5589 34.0851Z" fill="#ACDDF0"/>
<path d="M20.5193 27.2542C20.4176 27.267 20.3779 27.3544 20.3191 27.4196C20.1539 27.6024 20.084 27.8361 19.9918 28.057C19.7837 28.561 19.5629 29.0585 19.3723 29.5704C19.2039 30.0203 19.0418 30.4733 18.8623 30.9184C18.7384 31.2252 18.6463 31.5384 18.5557 31.8547C18.5414 31.9024 18.5255 31.8436 18.5112 31.8579C18.4731 31.699 18.4445 31.54 18.427 31.3763C18.4254 31.3556 18.4318 31.3317 18.408 31.319C18.5255 31.0122 18.6463 30.7054 18.759 30.397C18.8814 30.0616 18.9894 29.7198 19.1117 29.3844C19.2865 28.9043 19.4692 28.4274 19.6455 27.9473C19.7234 27.7359 19.7948 27.5229 19.8679 27.3099C19.887 27.2511 19.9188 27.2066 19.9728 27.1748C20.1332 27.0778 20.2603 26.9331 20.4287 26.8457C20.4414 26.8457 20.4557 26.8489 20.4573 26.8616C20.478 26.992 20.5193 27.1191 20.5209 27.2527L20.5193 27.2542Z" fill="#F5D4C2"/>
<path d="M20.076 23.9336C20.632 23.7778 21.1944 23.6935 21.7727 23.7873C22.0332 23.8302 22.2366 23.9654 22.3875 24.1768C22.5241 24.3707 22.5066 24.5806 22.4304 24.7936C21.9776 24.6028 21.5074 24.49 21.0197 24.4423C20.7877 24.42 20.5574 24.4311 20.327 24.4295C20.2508 24.4295 20.1713 24.4343 20.111 24.4947C20.0315 24.3517 20.0299 24.199 20.0601 24.0417C20.0681 24.0051 20.0712 23.9685 20.076 23.9336Z" fill="#1D2942"/>
<path d="M18.8003 12.7334C18.7193 12.7159 18.7526 12.7684 18.7653 12.797C18.848 12.9766 18.9337 13.1531 19.0386 13.32C19.0831 13.3899 19.1244 13.4615 19.1689 13.533C19.1752 13.6014 19.1228 13.622 19.0751 13.6459C19.0052 13.6443 18.9989 13.5743 18.9623 13.5394C18.9258 13.5028 18.8972 13.4599 18.8766 13.4233C18.8956 13.5139 18.9576 13.6077 18.9258 13.719C18.8797 13.7492 18.8146 13.7683 18.7908 13.8096C18.7638 13.8573 18.8225 13.9098 18.8321 13.9622C18.8988 14.3119 19.0307 14.6378 19.1736 14.9621C19.3436 15.342 19.5454 15.7045 19.7567 16.0622C19.8774 16.2672 20.0188 16.4628 20.1522 16.6615C20.3063 16.8904 20.4731 17.1113 20.6447 17.3275C20.8449 17.5787 21.0498 17.8283 21.2722 18.062C21.4438 18.2416 21.6106 18.4244 21.7901 18.5961C21.9474 18.7471 22.1158 18.8838 22.2826 19.0253C22.4526 19.1716 22.6257 19.313 22.7973 19.4593C22.9562 19.596 23.1293 19.712 23.2993 19.8329C23.374 19.8853 23.4645 19.9155 23.5202 19.9934C23.4916 20.0109 23.4661 19.9966 23.4391 19.9886C23.1262 19.7995 22.837 19.5785 22.559 19.3416C22.1857 19.0237 21.8139 18.7042 21.4692 18.3513C21.0196 17.8919 20.6082 17.3975 20.2333 16.8745C19.8345 16.3181 19.4771 15.7379 19.1832 15.1195C19.0243 14.7873 18.8893 14.4455 18.8003 14.0878C18.7685 13.9622 18.7256 13.8414 18.6923 13.7015C18.6351 14.1148 18.7574 14.4868 18.8734 14.8572C19.0465 15.4152 19.3118 15.9318 19.5946 16.4405C19.6026 16.4802 19.6391 16.5136 19.6169 16.5581C19.539 16.4866 19.4977 16.388 19.4485 16.299C19.261 15.9525 19.0815 15.6012 18.9433 15.2324C18.7987 14.8477 18.6669 14.4582 18.6303 14.0433C18.6208 13.9384 18.5954 13.9257 18.5032 13.9813C18.4476 14.0147 18.392 14.0481 18.3444 14.091C18.2888 14.1418 18.3174 14.2118 18.3253 14.2722C18.3491 14.4598 18.4095 14.6426 18.4079 14.8349C18.373 14.8318 18.3777 14.8016 18.373 14.7793C18.2872 14.3533 18.2284 13.9257 18.2125 13.4901C18.2014 13.1499 18.2061 12.8129 18.2332 12.4743C18.2363 12.425 18.2459 12.3773 18.2617 12.3312C18.2554 12.2931 18.2872 12.2724 18.3031 12.2438C18.3269 12.2025 18.3491 12.2136 18.3714 12.2438C18.4985 12.4218 18.651 12.5776 18.8003 12.735V12.7334Z" fill="#202E48"/>
<path d="M20.7798 25.4766C20.9133 25.3605 21.0594 25.2635 21.231 25.219C21.644 25.1109 22.0523 25.3319 22.2207 25.6753C22.2731 25.7818 22.3414 25.8851 22.2986 26.0139C22.3256 26.1045 22.2588 26.1744 22.2445 26.2555C22.2366 26.3048 22.2287 26.3588 22.1762 26.3874C22.1333 26.3938 22.1286 26.3572 22.1174 26.3318C22.0984 26.2873 22.0777 26.2444 22.038 26.2142C22.0332 26.211 22.0269 26.2062 22.0237 26.2014C21.8998 25.9741 21.698 25.936 21.4661 25.9694C21.1516 25.9821 20.872 26.0775 20.6352 26.2921C20.5749 26.3477 20.5256 26.4129 20.47 26.4924C20.4462 26.4351 20.4557 26.3906 20.4573 26.3461C20.4637 26.2046 20.5145 26.0759 20.5701 25.9487C20.5987 25.8851 20.6178 25.8215 20.6114 25.7516C20.6305 25.6371 20.6797 25.5401 20.7782 25.4734L20.7798 25.4766Z" fill="#DA7255"/>
<path d="M20.5193 27.2548C20.4716 27.1467 20.4573 27.0322 20.4462 26.9162C20.443 26.8923 20.451 26.8669 20.4287 26.8478C20.4525 26.8128 20.4446 26.7715 20.4494 26.7334C20.524 26.6173 20.6479 26.5712 20.7671 26.5235C20.8497 26.4901 20.9387 26.4742 21.0276 26.4599C21.1245 26.444 21.15 26.4663 21.1563 26.5633C21.1643 26.6968 21.1865 26.824 21.2643 26.94C21.4232 27.1785 21.7949 27.1435 21.9061 26.9162C21.9888 26.7954 22.0062 26.6507 22.0587 26.5172C22.0809 26.4774 22.073 26.4027 22.1556 26.4361C22.1746 26.4584 22.1794 26.487 22.1762 26.514C22.146 26.7063 22.154 26.905 22.0602 27.0847C22.038 27.1276 22.0078 27.1594 21.9665 27.1817C21.8839 27.3724 21.7266 27.4885 21.5566 27.5886C21.3946 27.6856 21.2246 27.7237 21.0356 27.684C20.8513 27.6458 20.7306 27.5202 20.6162 27.3867C20.5812 27.3454 20.5526 27.2977 20.5209 27.2516L20.5193 27.2548Z" fill="#DFD5D3"/>
<path d="M20.1126 24.4929C20.1094 24.442 20.1237 24.4214 20.1841 24.415C20.9292 24.3435 21.6456 24.4627 22.3446 24.7202C22.3796 24.7329 22.4257 24.7409 22.432 24.7918C22.3796 24.9205 22.3335 25.0525 22.2382 25.159C22.1826 25.221 22.1191 25.2337 22.0476 25.1971C21.7267 25.035 21.3787 24.9698 21.0356 24.876C20.7925 24.8092 20.5479 24.7918 20.3001 24.7727C20.2588 24.8029 20.2349 24.7727 20.2095 24.7488C20.1777 24.663 20.146 24.5787 20.1126 24.4945V24.4929Z" fill="#121329"/>
<path d="M22.4606 20.5409C22.2604 20.5409 22.0999 20.6395 21.9379 20.7428C21.7377 20.8716 21.5836 21.0433 21.4343 21.2261C21.1293 21.606 20.8783 22.0177 20.6733 22.4581C20.5018 22.8269 20.3699 23.2132 20.2222 23.5915C20.1968 23.6583 20.1713 23.7234 20.1443 23.7886C20.13 23.8236 20.1173 23.814 20.1094 23.7838C20.1173 23.7505 20.1221 23.7171 20.1348 23.6853C20.3286 23.229 20.4557 22.7474 20.6527 22.2911C20.8131 21.9176 20.9815 21.5472 21.0912 21.1529C21.1229 21.0369 21.1452 20.9193 21.1468 20.7984C21.3851 20.5632 21.6758 20.4583 22.0062 20.4551C22.1111 20.4551 22.2159 20.4694 22.3192 20.4821C22.3716 20.4885 22.4208 20.5028 22.4622 20.5409H22.4606Z" fill="#DA7255"/>
<path d="M30.6929 29.8736C30.8676 29.8514 31.0185 29.7735 31.1711 29.6892C31.4268 29.5477 31.6874 29.4158 31.9336 29.2584C32.1878 29.0963 32.3832 28.8705 32.5802 28.6464C32.6755 28.5383 32.7676 28.427 32.8455 28.3046C32.8614 28.2792 32.8725 28.2871 32.8773 28.3126C32.6405 28.7163 32.3546 29.082 32.0369 29.4253C31.797 29.6829 31.5491 29.9324 31.2505 30.1232C31.1218 30.2059 30.9915 30.2917 30.8438 30.3378C30.7882 30.1852 30.731 30.031 30.6945 29.872L30.6929 29.8736Z" fill="#DA7255"/>
<path d="M21.9284 26.9231C21.8394 27.125 21.5408 27.1997 21.3612 27.071C21.1881 26.947 21.1372 26.7689 21.1341 26.5718C21.1341 26.4812 21.1007 26.4732 21.0229 26.486C20.81 26.5193 20.6193 26.6004 20.4509 26.7355C20.4509 26.6068 20.4351 26.478 20.4605 26.3508C20.4637 26.3874 20.4652 26.424 20.4684 26.4621C20.6066 26.2491 20.7989 26.1108 21.034 26.0297C21.1388 25.9948 21.2469 25.9709 21.3533 25.9455C21.3914 25.9359 21.4327 25.9312 21.4693 25.9534C21.4661 25.9693 21.455 25.9789 21.4407 25.9884C21.1801 26.1617 21.1102 26.5273 21.2341 26.8277C21.3469 27.1012 21.617 27.1584 21.8426 26.966C21.868 26.9454 21.8871 26.9136 21.9284 26.9231Z" fill="#ACA19F"/>
<path d="M18.2602 12.329C18.2158 12.7153 18.211 13.1032 18.2253 13.491C18.2396 13.933 18.3015 14.3685 18.3937 14.7993C18.3969 14.8105 18.4032 14.8216 18.408 14.8327C18.4715 15.0489 18.5271 15.2667 18.5923 15.4829C18.6685 15.688 18.7432 15.8978 18.8369 16.0965C18.9291 16.2904 19.0196 16.4876 19.1292 16.6735C19.2944 16.9517 19.466 17.2268 19.6567 17.4859C19.8775 17.7847 20.1031 18.082 20.3398 18.3681C20.613 18.6988 20.8974 19.0167 21.2246 19.2949C21.2532 19.3203 21.3184 19.3505 21.2882 19.3903C21.2612 19.4269 21.2103 19.3776 21.1754 19.3569C20.9117 19.1916 20.6623 19.0088 20.424 18.8085C20.1523 18.5811 19.887 18.3459 19.6392 18.0931C19.3628 17.8117 19.1165 17.5034 18.9068 17.1695C18.8973 17.1536 18.8846 17.1393 18.8735 17.1266C18.8655 17.1091 18.8592 17.0916 18.8528 17.0741C18.8433 17.0614 18.8417 17.0487 18.8528 17.0376C18.9354 17.09 18.9656 17.1822 19.0164 17.257C19.1832 17.4986 19.3628 17.7275 19.5613 17.9405C19.9474 18.357 20.3763 18.7258 20.8243 19.0724C20.8799 19.1137 20.9403 19.1487 21.0102 19.1741C20.9879 19.1518 20.9689 19.1264 20.9466 19.1041C20.6273 18.783 20.3334 18.4381 20.0554 18.082C19.8314 17.7943 19.601 17.5097 19.4041 17.2013C19.0974 16.7244 18.8274 16.2284 18.6288 15.6943C18.489 15.3176 18.3889 14.9313 18.3079 14.5402C18.2634 14.3193 18.2491 14.0903 18.2237 13.863C18.1919 13.5689 18.1808 13.2733 18.1887 12.976C18.1935 12.7884 18.211 12.6024 18.2221 12.4148C18.2396 12.3862 18.2173 12.3401 18.2602 12.3242V12.329Z" fill="#8EC6D9"/>
<path d="M20.5002 38.0703C20.5653 38.0401 20.5081 38.0035 20.497 37.9813C20.2714 37.4646 20.2825 36.9258 20.3572 36.3789C20.381 36.5061 20.3985 36.6348 20.4287 36.762C20.5145 37.1467 20.5732 37.5378 20.7114 37.9098C20.7607 38.0433 20.8131 38.1609 20.9815 38.1593C20.8163 38.1593 20.659 38.1101 20.5002 38.0703Z" fill="#A8DBED"/>
<path d="M20.2079 24.75C20.2381 24.7579 20.2683 24.7659 20.2984 24.7738C20.5304 24.8947 20.6527 25.1013 20.7401 25.335C20.7576 25.3795 20.7655 25.4288 20.7782 25.4765C20.7163 25.5655 20.6527 25.6545 20.6114 25.7547C20.5288 25.5115 20.4684 25.2603 20.3429 25.0314C20.2937 24.9392 20.2508 24.8438 20.2063 24.75H20.2079Z" fill="#F5D4C2"/>
<path d="M20.6337 14.3475C20.5034 14.2934 20.3938 14.2092 20.2969 14.1074C20.4208 14.171 20.5272 14.26 20.6337 14.3475Z" fill="#1D2942"/>
<path d="M25.5219 34.527C25.5902 34.4873 25.668 34.4952 25.7427 34.473C25.9333 34.4174 26.0731 34.2886 26.2209 34.1678C26.4163 34.0088 26.5863 33.8276 26.7086 33.6066C26.8246 33.3968 26.8961 33.1711 26.9644 32.9437C27.0899 32.5256 27.1931 32.1012 27.271 31.672C27.3282 31.3541 27.3774 31.0361 27.4298 30.7182C27.4584 30.5449 27.5013 30.3748 27.549 30.2063C27.5728 30.1237 27.6157 30.0664 27.6967 30.0187C27.9779 29.8582 28.2067 29.6356 28.4196 29.394C28.6245 29.1587 28.8135 28.9123 28.9756 28.6469C29.2631 28.1763 29.4585 27.6724 29.5443 27.1255C29.5729 26.938 29.6333 26.7552 29.6555 26.566C29.6825 26.3212 29.6984 26.078 29.6746 25.83C29.6523 25.5804 29.6094 25.3356 29.53 25.1003C29.4045 24.7299 29.2186 24.3961 28.9279 24.129C28.8755 24.0813 28.8533 24.0321 28.8564 23.9605C28.8628 23.8 28.8644 23.641 28.8739 23.4804C28.9009 23.0131 28.7579 22.5871 28.5228 22.1896C28.2829 21.7859 27.9747 21.4473 27.5665 21.2072C27.2741 21.0355 26.958 20.9274 26.6228 20.8782C26.2034 20.8178 25.784 20.8209 25.3646 20.8893C24.9579 20.9545 24.5719 21.088 24.1922 21.239C24.1064 21.2724 24.0222 21.2899 23.9316 21.2851C23.9205 21.2788 23.9205 21.2724 23.9301 21.2644C24.2891 21.0546 24.672 20.9036 25.0739 20.8082C25.4822 20.7112 25.8952 20.6477 26.3178 20.6572C27.0565 20.6731 27.7714 20.7971 28.4339 21.142C28.9883 21.4298 29.3918 21.8558 29.4935 22.4948C29.5332 22.746 29.5602 23.0115 29.4712 23.2642C29.4601 23.2976 29.4649 23.3119 29.4951 23.3294C29.9018 23.5695 30.0749 23.9526 30.1353 24.4009C30.1845 24.7649 30.1432 25.1257 30.1099 25.4898C30.0813 25.7871 30.0352 26.0827 29.9923 26.3768C29.951 26.6598 29.9002 26.9411 29.8557 27.2225C29.8239 27.4228 29.8033 27.6247 29.762 27.8218C29.6984 28.1334 29.7191 28.4545 29.6603 28.7645C29.6539 28.8011 29.6587 28.8392 29.6571 28.8758C29.6396 29.5116 29.6063 30.1459 29.5952 30.7818C29.5904 31.1172 29.5602 31.4526 29.5014 31.7833C29.4045 32.3381 29.2059 32.8468 28.858 33.2982C28.6054 33.6273 28.3084 33.9039 27.9795 34.1503C27.8222 34.2679 27.6348 34.3061 27.4521 34.3554C27.1884 34.4269 26.9183 34.4666 26.6482 34.5032C26.3511 34.5429 26.0525 34.5525 25.7538 34.5366C25.6776 34.5334 25.5997 34.5302 25.5235 34.527V34.5239L25.5219 34.527Z" fill="#DA7255"/>
<path d="M19.5756 16.443C19.188 15.7674 18.8639 15.0663 18.6986 14.3001C18.6542 14.095 18.6383 13.8916 18.6685 13.6833C18.6716 13.6674 18.6653 13.6452 18.6939 13.6309C18.7272 13.739 18.767 13.8455 18.7924 13.9552C18.9385 14.5942 19.215 15.1792 19.539 15.7435C20.1697 16.8436 20.9355 17.8403 21.868 18.7003C22.3652 19.1581 22.8736 19.6032 23.4487 19.9657C23.4868 19.9991 23.5377 20.007 23.579 20.0356C23.598 20.0499 23.6266 20.0642 23.6139 20.0913C23.6012 20.1183 23.5758 20.0992 23.5567 20.0944C23.4487 20.0674 23.3486 20.0213 23.2438 19.9863C22.5305 19.6939 21.8918 19.2885 21.3406 18.748C20.7321 18.1503 20.211 17.4842 19.763 16.7577C19.6995 16.6528 19.6439 16.5463 19.5772 16.443H19.5756Z" fill="#ABDCEF"/>
<path d="M28.2051 20.2679C28.0669 20.2472 27.9271 20.2297 27.7889 20.2059C27.1836 20.0994 26.5879 19.95 26.0033 19.7528C25.5441 19.5986 25.112 19.3793 24.6847 19.152C24.2764 18.9342 23.8824 18.6941 23.5011 18.4334C23.1087 18.1648 22.7307 17.8739 22.3653 17.5655C22.0539 17.3016 21.76 17.0218 21.4788 16.7261C21.2913 16.5274 21.1071 16.3255 20.9895 16.0664C23.0722 18.0185 25.533 19.3157 28.2019 20.2679H28.2051Z" fill="#121329"/>
<path d="M18.9259 13.7165C18.8989 13.5972 18.8703 13.4796 18.8401 13.3477C18.9227 13.4526 18.9974 13.548 19.0736 13.6433C19.1673 13.8754 19.2976 14.09 19.412 14.311C19.5725 14.6226 19.7456 14.9294 19.9315 15.2282C20.2111 15.6781 20.5098 16.1153 20.8481 16.5238C21.0944 16.8195 21.3517 17.1056 21.6139 17.387C21.8379 17.627 22.065 17.8623 22.3033 18.0849C22.7799 18.53 23.2406 18.9942 23.7553 19.3963C23.7617 19.4011 23.7649 19.4106 23.776 19.4297C23.6044 19.363 23.4583 19.2708 23.3121 19.1833C22.9229 18.9512 22.5464 18.7017 22.1985 18.4092C21.8093 18.0817 21.4439 17.7288 21.0991 17.3536C20.6829 16.9022 20.3032 16.4237 19.9712 15.907C19.5836 15.3029 19.2738 14.6591 19.0291 13.9851C18.9958 13.8961 18.9592 13.8071 18.9243 13.718L18.9259 13.7165Z" fill="#121229"/>
<path d="M23.2517 34.2088C23.1882 34.3519 23.2136 34.5093 23.1882 34.6571C22.7561 34.6937 22.3287 34.6476 21.9109 34.5442C21.6011 34.4664 21.2929 34.3757 21.0292 34.1818C20.9212 34.1023 20.8306 34.0101 20.7464 33.9052C20.6972 33.8448 20.7099 33.778 20.7051 33.7113C20.6908 33.6461 20.7353 33.6588 20.7687 33.6668C20.81 33.6747 20.8449 33.7017 20.8862 33.7113C21.3104 33.9227 21.76 34.0515 22.2271 34.1182C22.5194 34.1595 22.8149 34.1898 23.1119 34.1548C23.1628 34.1484 23.2343 34.1198 23.2533 34.2088H23.2517Z" fill="#121329"/>
<path d="M18.8735 17.127C18.9338 17.1572 18.9513 17.2208 18.9863 17.2701C19.3453 17.8042 19.7949 18.2557 20.2826 18.6722C20.5511 18.9011 20.8243 19.1204 21.123 19.3064C21.1738 19.3382 21.2278 19.3653 21.2914 19.3764C21.2326 19.3239 21.1722 19.2731 21.115 19.219C20.6496 18.7914 20.2604 18.297 19.8743 17.7978C19.4152 17.2033 19.0149 16.577 18.7305 15.8791C18.6765 15.7488 18.6177 15.6184 18.5907 15.4785C18.6622 15.5739 18.6908 15.6899 18.7289 15.798C18.8147 16.0365 18.9323 16.259 19.0435 16.4832C19.1483 16.6946 19.2754 16.8949 19.4057 17.0936C19.5979 17.3893 19.8124 17.6723 20.03 17.9504C20.2477 18.2271 20.4669 18.5037 20.7084 18.7628C20.8895 18.9567 21.0801 19.1411 21.2739 19.3207C21.3089 19.3541 21.3549 19.3764 21.3931 19.4066C21.4089 19.4193 21.4312 19.4352 21.4169 19.4606C21.401 19.4924 21.3756 19.4797 21.3533 19.4702C21.2406 19.4209 21.1373 19.3541 21.034 19.2874C20.7354 19.0934 20.4605 18.8661 20.1905 18.6324C19.9553 18.4289 19.7266 18.2159 19.5153 17.987C19.2722 17.7231 19.0371 17.4497 18.8703 17.127H18.8735Z" fill="#202E48"/>
<path d="M18.8512 17.039V17.0756C18.8051 17.0485 18.7956 16.9897 18.74 16.9436C18.7718 17.093 18.8306 17.2123 18.8814 17.3347C19.0101 17.6431 19.1467 17.9499 19.2992 18.2471C19.3103 18.2694 19.3199 18.2917 19.3135 18.3187C19.1864 18.12 19.1006 17.9022 19.0037 17.6892C18.8687 17.3935 18.7511 17.0915 18.6399 16.7878C18.6256 16.7497 18.6018 16.7099 18.6177 16.6543C18.6987 16.7862 18.775 16.9118 18.8512 17.0374V17.039Z" fill="#3E566D"/>
<path d="M23.9269 21.2633C23.9269 21.2633 23.9269 21.2776 23.9285 21.284C23.8617 21.3253 23.7791 21.3396 23.7203 21.3969C23.7013 21.4159 23.687 21.4 23.6727 21.3889C23.4979 21.2236 23.3248 21.0599 23.15 20.8945C23.2136 20.9088 23.2533 20.9613 23.2978 20.9994C23.4058 21.0917 23.5122 21.1854 23.6076 21.2904C23.6679 21.3571 23.7235 21.3539 23.7934 21.3237C23.8379 21.3047 23.8824 21.284 23.9285 21.2633H23.9269Z" fill="#8E7167"/>
<path d="M23.2422 19.9875C23.3693 19.9954 23.4741 20.0797 23.6092 20.0892C23.5583 20.0367 23.4837 20.0272 23.4487 19.9668C23.4725 19.9747 23.4964 19.9811 23.5202 19.9891C23.5742 20.024 23.6393 20.0383 23.6886 20.0828C23.7267 20.1083 23.7649 20.1321 23.803 20.1576C23.6076 20.1321 23.4185 20.0828 23.2438 19.9875H23.2422Z" fill="#73A0B4"/>
<path d="M19.7789 19.1516C19.6773 19.0531 19.6248 18.9243 19.5549 18.8051C19.4739 18.6636 19.3818 18.5301 19.3341 18.3711C19.4326 18.5014 19.4946 18.6509 19.5756 18.7924C19.6439 18.9116 19.7281 19.0213 19.7773 19.1516H19.7789Z" fill="#6F9BAF"/>
<path d="M18.5922 15.4822C18.5049 15.2724 18.4445 15.0562 18.408 14.832C18.4127 14.8352 18.4207 14.8384 18.4223 14.8432C18.489 15.053 18.5605 15.2628 18.5938 15.4822H18.5922Z" fill="#202E48"/>
<path d="M20.4097 34.4359C20.5336 34.2134 20.6114 33.9717 20.6829 33.7285C20.6464 33.986 20.5765 34.2293 20.4097 34.4359Z" fill="#836A64"/>
<path d="M18.5589 34.0867C18.5558 34.0724 18.5542 34.0581 18.551 34.0422C18.5113 34.0645 18.5208 34.1233 18.4747 34.136C18.5065 34.0359 18.5478 33.9421 18.6161 33.834C18.6082 33.9373 18.5907 34.0136 18.5589 34.0867Z" fill="#90CADC"/>
<path d="M19.5756 16.4434C19.6598 16.534 19.717 16.6421 19.7615 16.7581C19.6932 16.7041 19.6773 16.6119 19.6153 16.553C19.6122 16.5133 19.5708 16.4863 19.574 16.4434H19.5756Z" fill="#6E99AD"/>
<path d="M20.8719 33.7293C20.8338 33.7293 20.8052 33.7039 20.7718 33.688C20.7416 33.6721 20.7146 33.6625 20.7035 33.7102C20.6972 33.7102 20.6924 33.7102 20.686 33.7102C20.686 33.6912 20.6876 33.6737 20.6892 33.6546C20.7528 33.6069 20.8354 33.6403 20.8703 33.7277L20.8719 33.7293Z" fill="#633D47"/>
<path d="M23.687 20.0817C23.625 20.0595 23.5662 20.034 23.5186 19.9863C23.5821 20.0038 23.6456 20.0213 23.687 20.0817Z" fill="#202E48"/>
<path d="M25.4138 34.5427C25.4472 34.5172 25.4869 34.5315 25.5234 34.5299C25.4885 34.5522 25.4504 34.5442 25.4138 34.5427Z" fill="#DA7255"/>
<path d="M24.9278 32.0575C24.5513 32.5169 24.0715 32.8126 23.5043 32.9779C23.104 33.094 22.6957 33.1019 22.2843 33.0669C21.9713 33.0399 21.6679 32.9747 21.3835 32.8396C21.3231 32.811 21.2644 32.776 21.204 32.7458C21.1817 32.6727 21.2421 32.6489 21.285 32.6187C21.5583 32.4247 21.8601 32.2864 22.1731 32.1688C22.6083 32.0051 23.0595 31.9065 23.5186 31.854C23.946 31.8048 24.3733 31.8207 24.7959 31.9033C24.8261 31.9097 24.8563 31.9176 24.8849 31.9287C24.9659 31.9605 24.9707 31.9764 24.9262 32.0575H24.9278Z" fill="#CC1517"/>
<path d="M20.8703 31.2995C20.8703 31.2995 20.8719 31.2867 20.8703 31.2804C20.8369 31.1167 20.8369 31.1214 21.0133 31.1135C21.331 31.0976 21.6487 31.1039 21.9649 31.0912C22.2175 31.0801 22.4685 31.0499 22.7211 31.061C23.1166 31.0769 23.5138 31.1039 23.9094 31.1262C24.2223 31.1437 24.5337 31.1866 24.8483 31.1914C24.9928 31.193 25.1358 31.2136 25.2804 31.2295C25.3471 31.2375 25.3725 31.2852 25.3471 31.344C25.3312 31.3805 25.3169 31.4171 25.3074 31.4553C25.2693 31.6094 25.1438 31.6079 25.0246 31.6158C24.9118 31.6238 24.799 31.6269 24.6878 31.654C24.6211 31.7032 24.5417 31.6969 24.4654 31.7017C24.0651 31.7255 23.6647 31.7319 23.2644 31.7191C22.7004 31.7001 22.1365 31.7048 21.5725 31.7032C21.4946 31.7032 21.42 31.6889 21.3437 31.6794C21.2405 31.6556 21.1356 31.6365 21.0403 31.5856C21.0006 31.5681 20.9688 31.5411 20.9497 31.5029C20.937 31.4727 20.9259 31.4409 20.9053 31.4139C20.9005 31.4076 20.8973 31.3996 20.8941 31.3933C20.8862 31.3678 20.8751 31.3424 20.8687 31.3154V31.3042L20.8703 31.2995Z" fill="#DFD5D3"/>
<path d="M21.3168 31.651C22.4415 31.6669 23.5647 31.7257 24.6894 31.651C24.8404 31.6669 24.9897 31.6255 25.1406 31.6319C25.1708 31.6319 25.2137 31.624 25.1851 31.6764C25.1104 31.8099 25.0278 31.9387 24.9293 32.0563C24.9579 32.0007 24.9468 31.9705 24.8817 31.9514C24.7419 31.9133 24.5973 31.8942 24.4559 31.8767C24.2907 31.8576 24.1239 31.8513 23.9587 31.8545C23.4725 31.864 22.9975 31.9419 22.5337 32.0786C22.0952 32.2074 21.6742 32.379 21.2961 32.6429C21.258 32.6684 21.2167 32.6922 21.2087 32.7447C21.0403 32.608 20.9085 32.4426 20.8195 32.2407C20.7305 32.0357 20.6861 31.8195 20.6241 31.6065C20.6193 31.589 20.6178 31.5699 20.6162 31.5524C20.6019 31.3028 20.5606 31.2536 20.3239 31.2075C20.3016 31.2027 20.2635 31.2122 20.2603 31.182C20.2571 31.1407 20.2984 31.1518 20.3223 31.1471C20.4684 31.1137 20.6178 31.1375 20.7639 31.1327C20.7973 31.1327 20.81 31.155 20.8211 31.1836C20.8354 31.2234 20.837 31.2695 20.8735 31.2997C20.8926 31.3283 20.8942 31.3632 20.9116 31.3903C20.9323 31.4205 20.9434 31.4554 20.9657 31.4841C20.9847 31.5159 21.0086 31.5413 21.0403 31.5604C21.1229 31.6208 21.2198 31.6383 21.3168 31.651Z" fill="#EC634B"/>
<path d="M27.344 24.0258C27.5633 24.1482 27.7682 24.2881 27.9604 24.4899C27.8858 24.4899 27.8349 24.4899 27.7841 24.4899C27.1725 24.5042 26.5624 24.5376 25.9667 24.695C25.4901 24.8222 25.0326 24.9939 24.5989 25.2323C24.548 25.2609 24.4956 25.288 24.4448 25.3166C24.2097 25.4517 24.0127 25.2816 24.0587 25.067C24.1 24.9907 24.1699 24.943 24.2351 24.8921C24.6449 24.5678 25.1072 24.35 25.6093 24.2086C25.8761 24.1339 26.1399 24.0496 26.4163 24.0099C26.6784 23.9733 26.9389 23.9844 27.2011 23.9828C27.2519 23.9828 27.2948 24.013 27.3425 24.0226L27.344 24.0258Z" fill="#121329"/>
<path d="M21.9665 27.1838C22.092 27.0312 22.1079 26.8452 22.1333 26.6608C22.1429 26.5877 22.1524 26.5146 22.1508 26.4414C22.1365 26.416 22.1508 26.3985 22.1667 26.3826C22.2334 26.2682 22.2493 26.1346 22.3001 26.0138C22.3955 25.8199 22.5861 25.7261 22.7386 25.5925C22.8863 25.4622 22.9324 25.2937 22.8879 25.0902C22.8323 24.8327 22.7402 24.5879 22.6592 24.3399C22.602 24.165 22.5718 23.9886 22.6131 23.8042C22.6433 23.6738 22.7275 23.5753 22.8053 23.4688C22.7656 23.6182 22.7418 23.7692 22.7402 23.9234C22.7402 24.0585 22.7624 24.1873 22.8037 24.3129C22.8641 24.4941 22.907 24.6833 22.9737 24.8597C23.0436 25.0425 23.0563 25.2317 23.0675 25.4177C23.0786 25.5973 22.9642 25.7404 22.8276 25.8564C22.7863 25.893 22.7402 25.9248 22.6957 25.9566C22.5384 26.0663 22.5067 26.2332 22.4828 26.408C22.4018 27.001 22.316 27.5939 22.1746 28.1773C22.1143 28.4253 22.0698 28.6765 22.0237 28.9277C21.9888 29.1168 22.0714 29.2583 22.2477 29.3362C22.4241 29.4141 22.6067 29.4395 22.7958 29.4443C22.8133 29.4443 22.8673 29.4109 22.853 29.4777C22.7974 29.5381 22.718 29.5349 22.6481 29.5445C22.4241 29.5715 22.2001 29.589 21.9824 29.5095C21.8267 29.4523 21.7123 29.341 21.6011 29.2249C21.5582 29.1804 21.5455 29.1232 21.563 29.0612C21.6266 28.8323 21.6869 28.6034 21.7441 28.3729C21.7505 28.349 21.76 28.3252 21.7822 28.3125C21.8521 28.1471 21.8696 27.9691 21.9077 27.7958C21.9443 27.6273 21.9713 27.4588 21.9967 27.2887C22.0015 27.2537 22.0317 27.2013 21.9665 27.1822V27.1838Z" fill="#F5D4C2"/>
<path d="M24.9277 26.7365C24.915 26.7397 24.9023 26.7858 24.8896 26.7333C24.8594 26.6029 24.8674 26.4678 24.8785 26.3375C24.8864 26.2564 24.896 26.1721 24.9039 26.0911C24.9389 25.7334 25.1629 25.514 25.4393 25.3312C25.6315 25.204 25.8523 25.1532 26.0779 25.1468C26.3813 25.1389 26.7467 25.2772 26.9072 25.6523C26.9993 25.8669 27.0231 26.0974 27.0565 26.3232C27.0597 26.3438 27.0597 26.3677 27.0422 26.3836C26.9675 26.3565 26.9104 26.2977 26.842 26.2596C26.7404 26.2023 26.6371 26.1547 26.5227 26.126C26.3575 26.0132 26.178 26.0211 25.9953 26.0704C25.6966 26.0593 25.4393 26.1626 25.22 26.3613C25.112 26.4583 25.0072 26.56 24.9579 26.7031C24.9531 26.7174 24.942 26.7285 24.9277 26.7365Z" fill="#DA7255"/>
<path d="M21.7807 28.3144C21.7282 28.5608 21.6631 28.804 21.59 29.0456C21.5662 29.1251 21.5852 29.1839 21.6393 29.2364C21.8251 29.4224 22.0332 29.5511 22.3128 29.5416C22.4955 29.5352 22.6751 29.5225 22.8514 29.4796C23.042 29.4494 23.2327 29.4224 23.4233 29.3874C23.6362 29.3477 23.8332 29.2539 24.0254 29.1585C24.0985 29.1219 24.1557 29.0456 24.2113 28.9804C24.2494 28.9359 24.2716 28.9375 24.305 28.9788C24.4432 29.1489 24.4845 29.3492 24.4575 29.5607C24.448 29.637 24.4623 29.6545 24.5322 29.6497C24.5719 29.6465 24.6116 29.6402 24.6513 29.6576C24.6434 29.6894 24.6148 29.6926 24.5925 29.691C24.4686 29.6799 24.3543 29.7244 24.2415 29.7594C23.9094 29.8611 23.5742 29.9565 23.2374 30.0392C23.1421 30.0646 23.0468 30.0853 22.9483 30.0916C22.8578 30.0916 22.7593 30.0519 22.6894 30.1457C22.656 30.1027 22.6179 30.0757 22.5591 30.0789C22.5067 30.0789 22.459 30.0598 22.4113 30.0392C22.1492 29.9438 21.9316 29.7785 21.7092 29.6195C21.652 29.5782 21.5964 29.5321 21.536 29.4971C21.5217 29.486 21.5058 29.4764 21.5026 29.4557C21.5296 29.4287 21.5138 29.4065 21.4947 29.3842C21.401 29.2777 21.4057 29.1601 21.4407 29.0297C21.5296 28.7118 21.625 28.397 21.7362 28.087C21.7949 27.9217 21.841 27.7548 21.8934 27.5879C21.9014 27.5879 21.9077 27.5911 21.9157 27.5927C21.8919 27.731 21.868 27.8693 21.8442 28.0076C21.8251 28.1093 21.7886 28.2095 21.7854 28.3144H21.7807Z" fill="#DA7255"/>
<path d="M23.2231 30.0186C23.5917 29.9153 23.9619 29.8168 24.3273 29.7087C24.4353 29.6769 24.5401 29.6641 24.6497 29.6594C24.6593 29.6626 24.6688 29.6657 24.6799 29.6689C24.8722 29.8024 25.0755 29.9153 25.2868 30.0171C25.6554 30.1919 26.0303 30.2078 26.4195 30.0965C26.661 30.0266 26.8198 29.8644 26.9469 29.661C26.966 29.6292 26.9914 29.6021 27.0041 29.5672C27.0454 29.5513 27.0295 29.5004 27.0597 29.4766C27.1391 29.6785 26.9501 30.1299 26.6896 30.3588C26.4656 30.4415 26.2336 30.4876 25.9985 30.5114C25.2503 30.583 24.5258 30.4606 23.8173 30.2269C23.7124 30.1919 23.6108 30.1458 23.5186 30.0838C23.4583 30.0441 23.3995 30.025 23.3264 30.0409C23.2915 30.0488 23.2517 30.0536 23.2231 30.0202V30.0186Z" fill="#1D2942"/>
<path d="M27.344 24.0259C27.2217 24.0068 27.0978 24.0148 26.9755 24.01C26.6164 23.9973 26.2622 24.0418 25.919 24.1451C25.5266 24.2627 25.131 24.3677 24.7704 24.5727C24.5528 24.6967 24.3431 24.8303 24.1572 24.9972C24.127 25.0226 24.0937 25.0449 24.0603 25.0687C24.0476 24.8318 24.0778 24.6013 24.1572 24.3772C24.1906 24.2834 24.2589 24.2151 24.3367 24.1594C24.7037 23.8939 25.1104 23.7334 25.5647 23.6921C26.0699 23.6475 26.5592 23.727 27.0422 23.8685C27.1518 23.9003 27.2519 23.9559 27.344 24.0259Z" fill="#1D2942"/>
<path d="M23.2231 30.0194C23.3931 29.9669 23.5249 30.0591 23.6679 30.1291C23.9427 30.2658 24.2398 30.3309 24.5401 30.3914C24.8101 30.4454 25.085 30.4867 25.3598 30.501C25.7522 30.5217 26.1398 30.4883 26.5211 30.3866C26.5751 30.3723 26.6291 30.3309 26.6927 30.3564C26.6434 30.4263 26.5656 30.4661 26.5036 30.5233C26.3781 30.6409 26.2256 30.7029 26.0604 30.7395C25.8777 30.7665 25.7014 30.819 25.5203 30.8492C25.193 30.9032 24.8641 30.9064 24.5353 30.8857C24.1779 30.8635 23.8315 30.7824 23.5027 30.6282C23.2977 30.5312 23.1214 30.4025 22.9959 30.2117C22.9721 30.1752 22.9482 30.1402 22.9482 30.0925C23.0324 30.0369 23.1341 30.048 23.2247 30.0178L23.2231 30.0194Z" fill="#121329"/>
<path d="M27.0231 26.571C27.0263 26.8508 26.9087 27.0876 26.7435 27.3006C26.5052 27.609 26.1939 27.7696 25.7935 27.76C25.3551 27.7489 25.0421 27.4882 24.9658 27.0511C24.9579 27.0018 24.9547 26.9541 24.9484 26.9048C24.9817 26.8269 25.0643 26.7983 25.1231 26.7474C25.2518 26.6314 25.4059 26.5503 25.5632 26.4804C25.668 26.4343 25.7014 26.4613 25.6982 26.5726C25.6934 26.749 25.7189 26.9159 25.8428 27.0542C25.9508 27.175 26.0811 27.21 26.2336 27.1671C26.5021 27.0844 26.5958 26.8667 26.6546 26.6203C26.6705 26.5694 26.6609 26.5153 26.6657 26.4629C26.6705 26.42 26.6879 26.3866 26.7356 26.4025C26.8436 26.4374 26.9532 26.4724 27.0215 26.5742L27.0231 26.571Z" fill="#DFD5D3"/>
<path d="M21.5391 29.4766C21.6471 29.5243 21.7298 29.6086 21.8251 29.6753C22.0109 29.8073 22.1984 29.9329 22.4113 30.0171C22.3477 30.0664 22.2858 30.0235 22.2413 29.9933C22.1253 29.9154 22.0364 29.9472 21.922 30.0076C21.4263 30.2667 20.9021 30.4479 20.346 30.5179C20.1316 30.5449 19.9092 30.556 19.7058 30.4559C19.7312 30.4908 19.7868 30.5131 19.7614 30.5751C19.5692 30.4415 19.5358 30.2444 19.5565 30.0346C19.5946 29.669 19.7964 29.3971 20.0744 29.173C20.0887 29.1619 20.1062 29.1396 20.13 29.1619C20.0807 29.2286 20.0378 29.3002 19.995 29.3717C19.771 29.7373 20.0426 29.9885 20.3413 30.0123C20.5589 30.0314 20.7559 29.9631 20.9386 29.8518C21.0943 29.758 21.25 29.6642 21.3914 29.5482C21.4343 29.5132 21.4835 29.4846 21.5391 29.4766Z" fill="#1D2942"/>
<path d="M19.7615 30.5761C19.7535 30.5094 19.6709 30.4919 19.6614 30.4172C19.7313 30.4299 19.7885 30.4744 19.8552 30.4839C20.1427 30.5284 20.4239 30.5014 20.7035 30.4315C21.107 30.3297 21.5058 30.2089 21.868 30.0054C22.0237 29.918 22.1476 29.8878 22.2969 29.9911C22.3303 30.0134 22.3684 30.0277 22.4113 30.0181C22.478 30.0356 22.5416 30.0627 22.6115 30.0611C22.6655 30.0611 22.6957 30.0881 22.6877 30.1469C22.5845 30.2884 22.4304 30.3631 22.289 30.4537C21.7933 30.7701 21.2468 30.8734 20.667 30.8432C20.4287 30.8305 20.1952 30.8098 19.9728 30.7128C19.9362 30.6969 19.8965 30.689 19.8695 30.654C19.8361 30.6238 19.7932 30.6079 19.7615 30.5761Z" fill="#121329"/>
<path d="M20.8719 33.7298C20.8179 33.6884 20.7734 33.6264 20.6908 33.6566C20.6638 33.5867 20.5891 33.5629 20.5446 33.5072C20.5065 33.4595 20.4572 33.4214 20.4255 33.3673C20.4143 33.3498 20.3858 33.3371 20.4032 33.3149C20.4175 33.2958 20.4429 33.3085 20.4636 33.3133C20.6685 33.3546 20.8623 33.4357 21.0609 33.5009C21.439 33.6233 21.8251 33.6996 22.2175 33.7552C22.648 33.8156 23.0833 33.8299 23.5122 33.9126C23.6679 33.9428 23.8299 33.9428 23.9888 33.9555C24.0222 33.9587 24.0555 33.9523 24.0857 33.9905C23.938 34.0429 23.787 34.0715 23.6393 34.1033C23.5519 34.1208 23.463 34.1288 23.3756 34.1447C23.3279 34.1526 23.2803 34.1653 23.2517 34.2114C23.2278 34.151 23.177 34.1796 23.1389 34.1828C22.5654 34.2305 22.0078 34.1415 21.4613 33.973C21.2579 33.9094 21.0609 33.8347 20.8719 33.7329V33.7298Z" fill="#D97156"/>
<path d="M26.0604 30.7396C26.2082 30.6681 26.3607 30.6077 26.5036 30.5234C26.448 30.7667 26.3829 31.0067 26.2828 31.2356C26.0382 31.7904 25.6696 32.2196 25.0643 32.431C25.0834 32.4072 25.0929 32.3913 25.104 32.377C25.1168 32.3627 25.1295 32.3484 25.1438 32.3388C25.3852 32.1608 25.5362 31.908 25.6855 31.6569C25.8412 31.3946 25.9921 31.1291 26.0493 30.8223C26.0541 30.7953 26.0572 30.7682 26.0604 30.7396Z" fill="#DA7255"/>
<path d="M24.2399 23.4801C24.2478 23.5564 24.2256 23.6168 24.2033 23.674C24.0778 24.0031 23.9936 24.3433 23.9221 24.6867C23.8776 24.8981 23.8808 25.1191 23.919 25.3352C23.9364 25.437 23.9221 25.5387 23.9333 25.6643C23.7839 25.5371 23.6282 25.4513 23.5488 25.2828C23.5202 25.2224 23.5202 25.162 23.5329 25.0936C23.6266 24.6056 23.8379 24.1637 24.0699 23.7313C24.1159 23.6454 24.1779 23.5691 24.2399 23.4785V23.4801Z" fill="#DA7255"/>
<path d="M26.2447 27.1817C26.0859 27.2516 25.8968 27.1864 25.784 27.0195C25.6871 26.878 25.6649 26.7175 25.676 26.5522C25.6808 26.4743 25.6665 26.4584 25.5918 26.4917C25.4282 26.5649 25.2709 26.6491 25.1343 26.7668C25.0755 26.8176 25.0119 26.8606 24.95 26.9035C24.9087 26.851 24.9389 26.7906 24.9277 26.735C25.0326 26.425 25.2709 26.2485 25.5537 26.1261C25.6903 26.0657 25.8364 26.0244 25.9905 26.0514C25.9858 26.0975 25.9476 26.1182 25.9191 26.1436C25.6728 26.3598 25.6966 26.7731 25.819 26.9734C25.8905 27.0879 25.9921 27.1546 26.1303 27.1578C26.1701 27.1578 26.2114 27.1499 26.2447 27.1817Z" fill="#ADA29F"/>
<path d="M27.0057 29.5645C26.9406 29.7536 26.8262 29.911 26.6578 30.0127C26.3162 30.2146 25.9429 30.2369 25.5664 30.1431C25.2868 30.0731 25.0358 29.9317 24.7959 29.7711C24.753 29.7425 24.7181 29.7012 24.6799 29.6662C24.7435 29.6582 24.8007 29.6773 24.8594 29.698C25.1645 29.8077 25.4584 29.9444 25.7729 30.027C26.2352 30.1463 26.6149 30.0111 26.9247 29.6551C26.9501 29.6249 26.9771 29.5947 27.0041 29.5645H27.0057Z" fill="#ACDCEE"/>
<path d="M21.5392 29.4769C21.3231 29.6279 21.115 29.7916 20.8783 29.9124C20.6527 30.0285 20.4176 30.0968 20.1682 29.9967C19.8981 29.8886 19.8155 29.6644 19.9474 29.4037C19.9934 29.3131 20.0538 29.2305 20.13 29.1621C20.1046 29.24 20.0601 29.3115 20.0379 29.391C20.0077 29.4975 20.022 29.5961 20.0538 29.6978C20.0951 29.825 20.2015 29.8504 20.3127 29.8695C20.4891 29.8981 20.6559 29.8552 20.8116 29.7773C20.9831 29.6931 21.15 29.6009 21.3168 29.5087C21.374 29.4769 21.4343 29.4562 21.4995 29.4546C21.5122 29.461 21.5249 29.4673 21.5376 29.4753L21.5392 29.4769Z" fill="#ABDCEF"/>
<path d="M27.0231 26.572C26.9183 26.5116 26.8229 26.4353 26.6974 26.4178C26.68 26.4893 26.7117 26.5624 26.6736 26.6276C26.645 26.6069 26.6434 26.5751 26.645 26.5449C26.653 26.4035 26.626 26.2715 26.5433 26.1539C26.5354 26.1412 26.5322 26.1253 26.5322 26.1094C26.7276 26.1523 26.8976 26.2445 27.0422 26.3828C27.0533 26.4464 27.0485 26.51 27.0215 26.5704L27.0231 26.572Z" fill="#ADA29F"/>
<path d="M19.7615 30.5762C19.806 30.5905 19.8473 30.608 19.8695 30.6541C19.8234 30.6413 19.7853 30.6191 19.7615 30.5762Z" fill="#1D2942"/>
<path d="M32.9742 26.0893C32.9123 25.9526 32.8694 25.8318 32.8329 25.7078C32.7884 25.5584 32.7375 25.5361 32.585 25.5806C32.4579 25.6172 32.3515 25.6935 32.253 25.7761C32.0322 25.9653 31.8749 26.2038 31.7621 26.4724C31.7065 26.6059 31.6604 26.7427 31.6255 26.8825C31.6175 26.9143 31.608 26.9461 31.6287 26.9875C31.7621 26.8603 31.9019 26.7442 32.0592 26.6552C32.2848 26.5265 32.5167 26.4565 32.7725 26.5551C32.9282 26.6139 32.9885 26.7347 32.9409 26.8825C32.9313 26.9112 32.9282 26.9445 32.8805 26.9318C32.7074 26.8889 32.5533 26.943 32.4039 27.0256C32.0592 27.218 31.8622 27.5264 31.7208 27.8809C31.6986 27.9349 31.7017 27.9874 31.7383 28.0382C31.7748 28.0923 31.7891 28.1575 31.7844 28.2242C31.7828 28.2528 31.7875 28.2846 31.8129 28.2989C31.84 28.3148 31.8527 28.2799 31.8733 28.2687C32.0894 28.1384 32.2657 27.954 32.477 27.8173C32.4992 27.803 32.5231 27.7902 32.5548 27.7728C32.5485 27.8809 32.4881 27.9556 32.4389 28.0287C32.3356 28.1829 32.2514 28.3466 32.1545 28.504C32.0369 28.6979 31.8606 28.841 31.6843 28.9809C31.5016 29.1256 31.2871 29.1637 31.0647 29.1828C31.052 29.1828 31.0393 29.1828 31.0282 29.1828C30.9853 29.1748 30.9281 29.1733 30.9122 29.1383C30.8947 29.0985 30.9551 29.0826 30.9789 29.054C31.1346 28.8744 31.2537 28.6757 31.3236 28.4484C31.3522 28.3562 31.3332 28.2703 31.3014 28.1861C31.2442 28.0319 31.1664 27.8888 31.0313 27.7855C31.0011 27.7632 31.0059 27.7314 31.0043 27.7012C30.9789 27.1623 31.1139 26.6616 31.3935 26.2038C31.5635 25.924 31.8002 25.7046 32.0925 25.5488C32.2165 25.4821 32.3404 25.4169 32.477 25.3755C32.5755 25.3453 32.6708 25.3565 32.7677 25.3628C32.8122 25.366 32.8567 25.3867 32.871 25.4312C32.9361 25.6299 32.979 25.835 32.987 26.0448C32.987 26.0527 32.9822 26.0607 32.9742 26.0861V26.0893Z" fill="#DA7255"/>
<path d="M21.9284 26.9225C21.868 26.9702 21.8187 27.0291 21.7473 27.0624C21.5789 27.1419 21.3993 27.1038 21.2834 26.9575C21.0769 26.7 21.1166 26.2326 21.366 26.0117C21.3962 25.9862 21.4343 25.9703 21.4692 25.9513C21.7377 25.8893 21.895 25.9576 22.0491 26.1992C22.1047 26.2517 22.1158 26.3216 22.1031 26.39C22.0936 26.4377 22.0936 26.4854 22.0793 26.5315C22.0348 26.6618 22.0157 26.8049 21.93 26.921L21.9284 26.9225Z" fill="#1B100C"/>
<path d="M22.0761 26.533C22.0618 26.4218 22.0999 26.3073 22.0475 26.1992C22.1301 26.2326 22.1253 26.3216 22.1666 26.382C22.1619 26.4011 22.1555 26.4218 22.1507 26.4408C22.0681 26.425 22.111 26.5108 22.0761 26.5315V26.533Z" fill="#B5A29C"/>
<path d="M21.3167 31.6512C21.2134 31.6527 21.1149 31.64 21.0403 31.5605C21.1324 31.5908 21.2246 31.621 21.3167 31.6512Z" fill="#DCA17D"/>
<path d="M20.964 31.4848C20.9291 31.4641 20.9132 31.4323 20.91 31.3926C20.945 31.4132 20.9593 31.4466 20.964 31.4848Z" fill="#DCA17D"/>
<path d="M20.9101 31.3918C20.8799 31.3695 20.8704 31.3377 20.872 31.3027C20.9022 31.325 20.9117 31.3568 20.9101 31.3918Z" fill="#DCA17D"/>
<path d="M26.5339 26.1084C26.6753 26.2547 26.6832 26.4375 26.6737 26.6251C26.626 26.8238 26.5625 27.0146 26.3703 27.1242C26.3305 27.1465 26.2877 27.1608 26.2448 27.1799C26.1844 27.1719 26.1224 27.191 26.0621 27.1767C25.9 27.1385 25.7968 27.032 25.7475 26.8794C25.6506 26.5726 25.6983 26.2467 25.9906 26.0496C26.1812 25.9813 26.3639 25.9813 26.5339 26.1069V26.1084Z" fill="#1B100C"/>
<path d="M21.9204 26.2591C21.922 26.3736 21.8426 26.4705 21.7489 26.4721C21.6392 26.4721 21.5598 26.3783 21.5598 26.2448C21.5598 26.1462 21.6424 26.054 21.733 26.0509C21.8362 26.0477 21.9188 26.1399 21.9204 26.2591Z" fill="#DAD0CE"/>
<path d="M26.518 26.3792C26.518 26.4762 26.4433 26.5525 26.3528 26.5541C26.2305 26.5541 26.1335 26.4666 26.132 26.3538C26.132 26.2393 26.2209 26.1566 26.3432 26.1582C26.4402 26.1598 26.5196 26.26 26.518 26.3792Z" fill="#DFD5D2"/>
</g>
<defs>
<clipPath id="clip0_1_2">
<rect width="32" height="32" fill="white" transform="translate(9 9)"/>
</clipPath>
</defs>
</svg>
